<?xml version="1.0" encoding="UTF-8"?>
<svg id="Layer_1" data-name="Layer 1" xmlns="http://www.w3.org/2000/svg" viewBox="0 0 503.81 287.47">
  <defs>
    <style>
      .cls-1 {
        fill: #fff;
      }

      .cls-1, .cls-2 {
        stroke-width: 0px;
      }

      .cls-2 {
        fill: #00cb7a;
      }
    </style>
  </defs>
  <g>
    <g>
      <circle class="cls-2" cx="37.56" cy="41.21" r="35.5"/>
      <path class="cls-1" d="M37.55,78.77C16.85,78.77,0,61.92,0,41.21S16.85,3.66,37.55,3.66s37.56,16.85,37.56,37.56-16.85,37.55-37.56,37.55ZM37.55,7.76C19.11,7.76,4.11,22.77,4.11,41.21s15.01,33.45,33.45,33.45,33.46-15.01,33.46-33.45S56,7.76,37.55,7.76Z"/>
    </g>
    <g>
      <circle class="cls-2" cx="81.45" cy="41.21" r="35.5"/>
      <path class="cls-1" d="M81.45,78.77c-20.7,0-37.55-16.85-37.55-37.55S60.74,3.66,81.45,3.66s37.55,16.85,37.55,37.56-16.85,37.55-37.55,37.55ZM81.45,7.76c-18.44,0-33.45,15.01-33.45,33.45s15.01,33.45,33.45,33.45,33.45-15.01,33.45-33.45S99.89,7.76,81.45,7.76Z"/>
    </g>
    <g>
      <circle class="cls-2" cx="124.54" cy="41.21" r="35.5"/>
      <path class="cls-1" d="M124.54,78.77c-20.7,0-37.55-16.85-37.55-37.55S103.83,3.66,124.54,3.66s37.55,16.85,37.55,37.56-16.85,37.55-37.55,37.55ZM124.54,7.76c-18.44,0-33.45,15.01-33.45,33.45s15.01,33.45,33.45,33.45,33.45-15.01,33.45-33.45S142.98,7.76,124.54,7.76Z"/>
    </g>
    <g>
      <circle class="cls-2" cx="166.61" cy="41.21" r="35.5"/>
      <path class="cls-1" d="M166.61,78.77c-20.7,0-37.55-16.85-37.55-37.55S145.91,3.66,166.61,3.66s37.55,16.85,37.55,37.56-16.85,37.55-37.55,37.55ZM166.61,7.76c-18.44,0-33.45,15.01-33.45,33.45s15.01,33.45,33.45,33.45,33.45-15.01,33.45-33.45-15.01-33.45-33.45-33.45Z"/>
    </g>
    <g>
      <circle class="cls-2" cx="57.72" cy="89.84" r="35.5"/>
      <path class="cls-1" d="M57.72,127.39c-20.7,0-37.55-16.85-37.55-37.56s16.85-37.55,37.55-37.55,37.55,16.85,37.55,37.55-16.85,37.56-37.55,37.56ZM57.72,56.39c-18.44,0-33.45,15.01-33.45,33.45s15.01,33.45,33.45,33.45,33.45-15.01,33.45-33.45-15.01-33.45-33.45-33.45Z"/>
    </g>
    <g>
      <circle class="cls-2" cx="101.61" cy="89.84" r="35.5"/>
      <path class="cls-1" d="M101.61,127.39c-20.7,0-37.55-16.85-37.55-37.56s16.85-37.55,37.55-37.55,37.55,16.85,37.55,37.55-16.85,37.56-37.55,37.56ZM101.61,56.39c-18.44,0-33.45,15.01-33.45,33.45s15.01,33.45,33.45,33.45,33.45-15.01,33.45-33.45-15.01-33.45-33.45-33.45Z"/>
    </g>
    <g>
      <circle class="cls-2" cx="144.7" cy="89.84" r="35.5"/>
      <path class="cls-1" d="M144.7,127.39c-20.7,0-37.55-16.85-37.55-37.56s16.85-37.55,37.55-37.55,37.55,16.85,37.55,37.55-16.85,37.56-37.55,37.56ZM144.7,56.39c-18.44,0-33.45,15.01-33.45,33.45s15.01,33.45,33.45,33.45,33.45-15.01,33.45-33.45-15.01-33.45-33.45-33.45Z"/>
    </g>
    <g>
      <circle class="cls-2" cx="78.75" cy="141.91" r="35.5"/>
      <path class="cls-1" d="M78.75,179.46c-20.7,0-37.55-16.85-37.55-37.56s16.85-37.55,37.55-37.55,37.55,16.85,37.55,37.55-16.85,37.56-37.55,37.56ZM78.75,108.46c-18.44,0-33.45,15.01-33.45,33.45s15.01,33.45,33.45,33.45,33.45-15.01,33.45-33.45-15.01-33.45-33.45-33.45Z"/>
    </g>
    <g>
      <circle class="cls-2" cx="122.65" cy="141.91" r="35.5"/>
      <path class="cls-1" d="M122.65,179.46c-20.7,0-37.55-16.85-37.55-37.56s16.85-37.55,37.55-37.55,37.55,16.85,37.55,37.55-16.85,37.56-37.55,37.56ZM122.65,108.46c-18.44,0-33.45,15.01-33.45,33.45s15.01,33.45,33.45,33.45,33.45-15.01,33.45-33.45-15.01-33.45-33.45-33.45Z"/>
    </g>
    <g>
      <circle class="cls-2" cx="96.83" cy="196.13" r="35.5"/>
      <path class="cls-1" d="M96.82,233.68c-20.7,0-37.55-16.85-37.55-37.55s16.85-37.55,37.55-37.55,37.55,16.85,37.55,37.55-16.85,37.55-37.55,37.55ZM96.82,162.68c-18.44,0-33.45,15.01-33.45,33.45s15.01,33.45,33.45,33.45,33.45-15.01,33.45-33.45-15.01-33.45-33.45-33.45Z"/>
    </g>
    <g>
      <circle class="cls-2" cx="206.93" cy="41.21" r="35.5"/>
      <path class="cls-1" d="M206.93,78.77c-20.7,0-37.55-16.85-37.55-37.55S186.22,3.66,206.93,3.66s37.56,16.85,37.56,37.56-16.85,37.55-37.56,37.55ZM206.93,7.76c-18.44,0-33.45,15.01-33.45,33.45s15.01,33.45,33.45,33.45,33.46-15.01,33.46-33.45-15.01-33.45-33.46-33.45Z"/>
    </g>
    <g>
      <circle class="cls-2" cx="186.77" cy="89.84" r="35.5"/>
      <path class="cls-1" d="M186.77,127.39c-20.7,0-37.55-16.85-37.55-37.56s16.85-37.55,37.55-37.55,37.55,16.85,37.55,37.55-16.85,37.56-37.55,37.56ZM186.77,56.39c-18.44,0-33.45,15.01-33.45,33.45s15.01,33.45,33.45,33.45,33.45-15.01,33.45-33.45-15.01-33.45-33.45-33.45Z"/>
    </g>
    <g>
      <circle class="cls-2" cx="165.74" cy="141.91" r="35.5"/>
      <path class="cls-1" d="M165.74,179.46c-20.7,0-37.55-16.85-37.55-37.56s16.85-37.55,37.55-37.55,37.55,16.85,37.55,37.55-16.85,37.56-37.55,37.56ZM165.74,108.46c-18.44,0-33.45,15.01-33.45,33.45s15.01,33.45,33.45,33.45,33.45-15.01,33.45-33.45-15.01-33.45-33.45-33.45Z"/>
    </g>
    <g>
      <circle class="cls-2" cx="140.72" cy="196.13" r="35.5"/>
      <path class="cls-1" d="M140.72,233.68c-20.7,0-37.55-16.85-37.55-37.55s16.85-37.55,37.55-37.55,37.55,16.85,37.55,37.55-16.85,37.55-37.55,37.55ZM140.72,162.68c-18.44,0-33.45,15.01-33.45,33.45s15.01,33.45,33.45,33.45,33.45-15.01,33.45-33.45-15.01-33.45-33.45-33.45Z"/>
    </g>
    <g>
      <circle class="cls-2" cx="112.83" cy="249.92" r="35.5"/>
      <path class="cls-1" d="M112.83,287.47c-20.7,0-37.55-16.85-37.55-37.55s16.85-37.55,37.55-37.55,37.55,16.85,37.55,37.55-16.85,37.55-37.55,37.55ZM112.83,216.47c-18.44,0-33.45,15.01-33.45,33.45s15.01,33.45,33.45,33.45,33.45-15.01,33.45-33.45-15.01-33.45-33.45-33.45Z"/>
    </g>
  </g>
  <g>
    <g>
      <circle class="cls-2" cx="166.61" cy="37.55" r="35.5"/>
      <path class="cls-1" d="M166.61,75.11c-20.7,0-37.55-16.85-37.55-37.56S145.91,0,166.61,0s37.55,16.85,37.55,37.55-16.85,37.56-37.55,37.56ZM166.61,4.11c-18.44,0-33.45,15.01-33.45,33.45s15.01,33.45,33.45,33.45,33.45-15.01,33.45-33.45-15.01-33.45-33.45-33.45Z"/>
    </g>
    <g>
      <circle class="cls-2" cx="210.5" cy="37.55" r="35.5"/>
      <path class="cls-1" d="M210.5,75.11c-20.7,0-37.55-16.85-37.55-37.56S189.8,0,210.5,0s37.55,16.85,37.55,37.55-16.85,37.56-37.55,37.56ZM210.5,4.11c-18.44,0-33.45,15.01-33.45,33.45s15.01,33.45,33.45,33.45,33.45-15.01,33.45-33.45-15.01-33.45-33.45-33.45Z"/>
    </g>
    <g>
      <circle class="cls-2" cx="253.6" cy="37.55" r="35.5"/>
      <path class="cls-1" d="M253.6,75.11c-20.7,0-37.55-16.85-37.55-37.56S232.89,0,253.6,0s37.55,16.85,37.55,37.55-16.85,37.56-37.55,37.56ZM253.6,4.11c-18.44,0-33.45,15.01-33.45,33.45s15.01,33.45,33.45,33.45,33.45-15.01,33.45-33.45-15.01-33.45-33.45-33.45Z"/>
    </g>
    <g>
      <circle class="cls-2" cx="295.66" cy="37.55" r="35.5"/>
      <path class="cls-1" d="M295.67,75.11c-20.71,0-37.56-16.85-37.56-37.56S274.95,0,295.67,0s37.55,16.85,37.55,37.55-16.85,37.56-37.55,37.56ZM295.67,4.11c-18.45,0-33.46,15.01-33.46,33.45s15.01,33.45,33.46,33.45,33.45-15.01,33.45-33.45-15.01-33.45-33.45-33.45Z"/>
    </g>
    <g>
      <circle class="cls-2" cx="186.77" cy="86.18" r="35.5"/>
      <path class="cls-1" d="M186.77,123.73c-20.7,0-37.55-16.85-37.55-37.55s16.85-37.55,37.55-37.55,37.55,16.85,37.55,37.55-16.85,37.55-37.55,37.55ZM186.77,52.73c-18.44,0-33.45,15.01-33.45,33.45s15.01,33.45,33.45,33.45,33.45-15.01,33.45-33.45-15.01-33.45-33.45-33.45Z"/>
    </g>
    <g>
      <circle class="cls-2" cx="230.66" cy="86.18" r="35.5"/>
      <path class="cls-1" d="M230.67,123.73c-20.71,0-37.56-16.85-37.56-37.55s16.85-37.55,37.56-37.55,37.55,16.85,37.55,37.55-16.85,37.55-37.55,37.55ZM230.67,52.73c-18.45,0-33.46,15.01-33.46,33.45s15.01,33.45,33.46,33.45,33.45-15.01,33.45-33.45-15.01-33.45-33.45-33.45Z"/>
    </g>
    <g>
      <circle class="cls-2" cx="273.76" cy="86.18" r="35.5"/>
      <path class="cls-1" d="M273.76,123.73c-20.71,0-37.56-16.85-37.56-37.55s16.85-37.55,37.56-37.55,37.55,16.85,37.55,37.55-16.85,37.55-37.55,37.55ZM273.76,52.73c-18.45,0-33.46,15.01-33.46,33.45s15.01,33.45,33.46,33.45,33.45-15.01,33.45-33.45-15.01-33.45-33.45-33.45Z"/>
    </g>
    <g>
      <circle class="cls-2" cx="207.81" cy="138.25" r="35.5"/>
      <path class="cls-1" d="M207.81,175.8c-20.71,0-37.56-16.85-37.56-37.55s16.85-37.55,37.56-37.55,37.55,16.85,37.55,37.55-16.85,37.55-37.55,37.55ZM207.81,104.8c-18.45,0-33.46,15.01-33.46,33.45s15.01,33.45,33.46,33.45,33.45-15.01,33.45-33.45-15.01-33.45-33.45-33.45Z"/>
    </g>
    <g>
      <circle class="cls-2" cx="251.7" cy="138.25" r="35.5"/>
      <path class="cls-1" d="M251.69,175.8c-20.7,0-37.55-16.85-37.55-37.55s16.85-37.55,37.55-37.55,37.56,16.85,37.56,37.55-16.85,37.55-37.56,37.55ZM251.69,104.8c-18.44,0-33.45,15.01-33.45,33.45s15.01,33.45,33.45,33.45,33.46-15.01,33.46-33.45-15.01-33.45-33.46-33.45Z"/>
    </g>
    <g>
      <circle class="cls-2" cx="225.88" cy="192.47" r="35.5"/>
      <path class="cls-1" d="M225.88,230.02c-20.7,0-37.55-16.85-37.55-37.55s16.85-37.55,37.55-37.55,37.55,16.85,37.55,37.55-16.85,37.55-37.55,37.55ZM225.88,159.02c-18.44,0-33.45,15.01-33.45,33.45s15.01,33.45,33.45,33.45,33.45-15.01,33.45-33.45-15.01-33.45-33.45-33.45Z"/>
    </g>
    <g>
      <circle class="cls-2" cx="335.99" cy="37.55" r="35.5"/>
      <path class="cls-1" d="M335.99,75.11c-20.7,0-37.55-16.85-37.55-37.56S315.28,0,335.99,0s37.55,16.85,37.55,37.55-16.85,37.56-37.55,37.56ZM335.99,4.11c-18.44,0-33.45,15.01-33.45,33.45s15.01,33.45,33.45,33.45,33.45-15.01,33.45-33.45-15.01-33.45-33.45-33.45Z"/>
    </g>
    <g>
      <circle class="cls-2" cx="315.83" cy="86.18" r="35.5"/>
      <path class="cls-1" d="M315.82,123.73c-20.7,0-37.55-16.85-37.55-37.55s16.85-37.55,37.55-37.55,37.55,16.85,37.55,37.55-16.85,37.55-37.55,37.55ZM315.82,52.73c-18.44,0-33.45,15.01-33.45,33.45s15.01,33.45,33.45,33.45,33.45-15.01,33.45-33.45-15.01-33.45-33.45-33.45Z"/>
    </g>
    <g>
      <circle class="cls-2" cx="294.79" cy="138.25" r="35.5"/>
      <path class="cls-1" d="M294.79,175.8c-20.7,0-37.55-16.85-37.55-37.55s16.85-37.55,37.55-37.55,37.56,16.85,37.56,37.55-16.85,37.55-37.56,37.55ZM294.79,104.8c-18.44,0-33.45,15.01-33.45,33.45s15.01,33.45,33.45,33.45,33.46-15.01,33.46-33.45-15.01-33.45-33.46-33.45Z"/>
    </g>
    <g>
      <circle class="cls-2" cx="269.77" cy="192.47" r="35.5"/>
      <path class="cls-1" d="M269.77,230.02c-20.7,0-37.55-16.85-37.55-37.55s16.85-37.55,37.55-37.55,37.55,16.85,37.55,37.55-16.85,37.55-37.55,37.55ZM269.77,159.02c-18.44,0-33.45,15.01-33.45,33.45s15.01,33.45,33.45,33.45,33.45-15.01,33.45-33.45-15.01-33.45-33.45-33.45Z"/>
    </g>
    <g>
      <circle class="cls-2" cx="241.88" cy="246.26" r="35.5"/>
      <path class="cls-1" d="M241.89,283.81c-20.71,0-37.56-16.85-37.56-37.55s16.85-37.56,37.56-37.56,37.55,16.85,37.55,37.56-16.85,37.55-37.55,37.55ZM241.89,212.81c-18.45,0-33.46,15.01-33.46,33.45s15.01,33.45,33.46,33.45,33.45-15.01,33.45-33.45-15.01-33.45-33.45-33.45Z"/>
    </g>
  </g>
  <g>
    <g>
      <circle class="cls-2" cx="296.88" cy="37.55" r="35.5"/>
      <path class="cls-1" d="M296.88,75.11c-20.7,0-37.55-16.85-37.55-37.56S276.18,0,296.88,0s37.55,16.85,37.55,37.55-16.85,37.56-37.55,37.56ZM296.88,4.11c-18.44,0-33.45,15.01-33.45,33.45s15.01,33.45,33.45,33.45,33.45-15.01,33.45-33.45-15.01-33.45-33.45-33.45Z"/>
    </g>
    <g>
      <circle class="cls-2" cx="340.77" cy="37.55" r="35.5"/>
      <path class="cls-1" d="M340.77,75.11c-20.7,0-37.55-16.85-37.55-37.56S320.07,0,340.77,0s37.55,16.85,37.55,37.55-16.85,37.56-37.55,37.56ZM340.77,4.11c-18.44,0-33.45,15.01-33.45,33.45s15.01,33.45,33.45,33.45,33.45-15.01,33.45-33.45-15.01-33.45-33.45-33.45Z"/>
    </g>
    <g>
      <circle class="cls-2" cx="383.87" cy="37.55" r="35.5"/>
      <path class="cls-1" d="M383.87,75.11c-20.7,0-37.55-16.85-37.55-37.56S363.16,0,383.87,0s37.55,16.85,37.55,37.55-16.85,37.56-37.55,37.56ZM383.87,4.11c-18.44,0-33.45,15.01-33.45,33.45s15.01,33.45,33.45,33.45,33.45-15.01,33.45-33.45-15.01-33.45-33.45-33.45Z"/>
    </g>
    <g>
      <circle class="cls-2" cx="425.93" cy="37.55" r="35.5"/>
      <path class="cls-1" d="M425.94,75.11c-20.7,0-37.55-16.85-37.55-37.56S405.23,0,425.94,0s37.55,16.85,37.55,37.55-16.85,37.56-37.55,37.56ZM425.94,4.11c-18.44,0-33.45,15.01-33.45,33.45s15.01,33.45,33.45,33.45,33.45-15.01,33.45-33.45-15.01-33.45-33.45-33.45Z"/>
    </g>
    <g>
      <circle class="cls-2" cx="317.04" cy="86.18" r="35.5"/>
      <path class="cls-1" d="M317.04,123.73c-20.7,0-37.55-16.85-37.55-37.55s16.85-37.55,37.55-37.55,37.55,16.85,37.55,37.55-16.85,37.55-37.55,37.55ZM317.04,52.73c-18.44,0-33.45,15.01-33.45,33.45s15.01,33.45,33.45,33.45,33.45-15.01,33.45-33.45-15.01-33.45-33.45-33.45Z"/>
    </g>
    <g>
      <circle class="cls-2" cx="360.94" cy="86.18" r="35.5"/>
      <path class="cls-1" d="M360.94,123.73c-20.7,0-37.55-16.85-37.55-37.55s16.85-37.55,37.55-37.55,37.55,16.85,37.55,37.55-16.85,37.55-37.55,37.55ZM360.94,52.73c-18.44,0-33.45,15.01-33.45,33.45s15.01,33.45,33.45,33.45,33.45-15.01,33.45-33.45-15.01-33.45-33.45-33.45Z"/>
    </g>
    <g>
      <circle class="cls-2" cx="404.03" cy="86.18" r="35.5"/>
      <path class="cls-1" d="M404.03,123.73c-20.7,0-37.55-16.85-37.55-37.55s16.85-37.55,37.55-37.55,37.55,16.85,37.55,37.55-16.85,37.55-37.55,37.55ZM404.03,52.73c-18.44,0-33.45,15.01-33.45,33.45s15.01,33.45,33.45,33.45,33.45-15.01,33.45-33.45-15.01-33.45-33.45-33.45Z"/>
    </g>
    <g>
      <circle class="cls-2" cx="338.08" cy="138.25" r="35.5"/>
      <path class="cls-1" d="M338.08,175.8c-20.7,0-37.55-16.85-37.55-37.55s16.85-37.55,37.55-37.55,37.55,16.85,37.55,37.55-16.85,37.55-37.55,37.55ZM338.08,104.8c-18.44,0-33.45,15.01-33.45,33.45s15.01,33.45,33.45,33.45,33.45-15.01,33.45-33.45-15.01-33.45-33.45-33.45Z"/>
    </g>
    <g>
      <circle class="cls-2" cx="381.97" cy="138.25" r="35.5"/>
      <path class="cls-1" d="M381.97,175.8c-20.71,0-37.56-16.85-37.56-37.55s16.85-37.55,37.56-37.55,37.55,16.85,37.55,37.55-16.85,37.55-37.55,37.55ZM381.97,104.8c-18.45,0-33.46,15.01-33.46,33.45s15.01,33.45,33.46,33.45,33.45-15.01,33.45-33.45-15.01-33.45-33.45-33.45Z"/>
    </g>
    <g>
      <circle class="cls-2" cx="356.15" cy="192.47" r="35.5"/>
      <path class="cls-1" d="M356.15,230.02c-20.7,0-37.55-16.85-37.55-37.55s16.85-37.55,37.55-37.55,37.55,16.85,37.55,37.55-16.85,37.55-37.55,37.55ZM356.15,159.02c-18.44,0-33.45,15.01-33.45,33.45s15.01,33.45,33.45,33.45,33.45-15.01,33.45-33.45-15.01-33.45-33.45-33.45Z"/>
    </g>
    <g>
      <circle class="cls-2" cx="466.26" cy="37.55" r="35.5"/>
      <path class="cls-1" d="M466.26,75.11c-20.7,0-37.55-16.85-37.55-37.56S445.55,0,466.26,0s37.55,16.85,37.55,37.55-16.85,37.56-37.55,37.56ZM466.26,4.11c-18.44,0-33.45,15.01-33.45,33.45s15.01,33.45,33.45,33.45,33.45-15.01,33.45-33.45-15.01-33.45-33.45-33.45Z"/>
    </g>
    <g>
      <circle class="cls-2" cx="446.1" cy="86.18" r="35.5"/>
      <path class="cls-1" d="M446.09,123.73c-20.7,0-37.55-16.85-37.55-37.55s16.85-37.55,37.55-37.55,37.56,16.85,37.56,37.55-16.85,37.55-37.56,37.55ZM446.09,52.73c-18.44,0-33.45,15.01-33.45,33.45s15.01,33.45,33.45,33.45,33.46-15.01,33.46-33.45-15.01-33.45-33.46-33.45Z"/>
    </g>
    <g>
      <circle class="cls-2" cx="425.06" cy="138.25" r="35.5"/>
      <path class="cls-1" d="M425.07,175.8c-20.71,0-37.56-16.85-37.56-37.55s16.85-37.55,37.56-37.55,37.55,16.85,37.55,37.55-16.85,37.55-37.55,37.55ZM425.07,104.8c-18.45,0-33.46,15.01-33.46,33.45s15.01,33.45,33.46,33.45,33.45-15.01,33.45-33.45-15.01-33.45-33.45-33.45Z"/>
    </g>
    <g>
      <circle class="cls-2" cx="400.04" cy="192.47" r="35.5"/>
      <path class="cls-1" d="M400.04,230.02c-20.7,0-37.55-16.85-37.55-37.55s16.85-37.55,37.55-37.55,37.55,16.85,37.55,37.55-16.85,37.55-37.55,37.55ZM400.04,159.02c-18.44,0-33.45,15.01-33.45,33.45s15.01,33.45,33.45,33.45,33.45-15.01,33.45-33.45-15.01-33.45-33.45-33.45Z"/>
    </g>
    <g>
      <circle class="cls-2" cx="372.15" cy="246.26" r="35.5"/>
      <path class="cls-1" d="M372.16,283.81c-20.7,0-37.55-16.85-37.55-37.55s16.85-37.56,37.55-37.56,37.55,16.85,37.55,37.56-16.85,37.55-37.55,37.55ZM372.16,212.81c-18.44,0-33.45,15.01-33.45,33.45s15.01,33.45,33.45,33.45,33.45-15.01,33.45-33.45-15.01-33.45-33.45-33.45Z"/>
    </g>
  </g>
</svg>