<?xml version="1.0" encoding="UTF-8"?>
<svg id="Layer_2" data-name="Layer 2" xmlns="http://www.w3.org/2000/svg" viewBox="0 0 50.24 41.62">
  <defs>
    <style>
      .cls-1 {
        fill: none;
      }

      .cls-1, .cls-2, .cls-3 {
        stroke-width: 0px;
      }

      .cls-2 {
        fill: #a7f8a4;
      }

      .cls-3 {
        fill: #fff;
      }
    </style>
  </defs>
  <g id="Layer_1-2" data-name="Layer 1">
    <rect class="cls-1" width="50.24" height="41.62"/>
    <g>
      <g>
        <g>
          <circle class="cls-2" cx="6.02" cy="11.67" r="3.16"/>
          <path class="cls-3" d="M6.02,15.09c-1.88,0-3.41-1.53-3.41-3.41s1.53-3.41,3.41-3.41,3.41,1.53,3.41,3.41-1.53,3.41-3.41,3.41ZM6.02,8.76c-1.61,0-2.91,1.31-2.91,2.91s1.31,2.91,2.91,2.91,2.91-1.31,2.91-2.91-1.31-2.91-2.91-2.91Z"/>
        </g>
        <g>
          <circle class="cls-2" cx="9.93" cy="11.67" r="3.16"/>
          <path class="cls-3" d="M9.93,15.09c-1.88,0-3.41-1.53-3.41-3.41s1.53-3.41,3.41-3.41,3.41,1.53,3.41,3.41-1.53,3.41-3.41,3.41ZM9.93,8.76c-1.61,0-2.91,1.31-2.91,2.91s1.31,2.91,2.91,2.91,2.91-1.31,2.91-2.91-1.31-2.91-2.91-2.91Z"/>
        </g>
        <g>
          <circle class="cls-2" cx="13.77" cy="11.67" r="3.16"/>
          <path class="cls-3" d="M13.77,15.09c-1.88,0-3.41-1.53-3.41-3.41s1.53-3.41,3.41-3.41,3.41,1.53,3.41,3.41-1.53,3.41-3.41,3.41ZM13.77,8.76c-1.61,0-2.91,1.31-2.91,2.91s1.31,2.91,2.91,2.91,2.91-1.31,2.91-2.91-1.31-2.91-2.91-2.91Z"/>
        </g>
        <g>
          <circle class="cls-2" cx="17.52" cy="11.67" r="3.16"/>
          <path class="cls-3" d="M17.52,15.09c-1.88,0-3.41-1.53-3.41-3.41s1.53-3.41,3.41-3.41,3.41,1.53,3.41,3.41-1.53,3.41-3.41,3.41ZM17.52,8.76c-1.61,0-2.91,1.31-2.91,2.91s1.31,2.91,2.91,2.91,2.91-1.31,2.91-2.91-1.31-2.91-2.91-2.91Z"/>
        </g>
        <g>
          <circle class="cls-2" cx="7.82" cy="16.01" r="3.16"/>
          <path class="cls-3" d="M7.82,19.42c-1.88,0-3.41-1.53-3.41-3.41s1.53-3.41,3.41-3.41,3.41,1.53,3.41,3.41-1.53,3.41-3.41,3.41ZM7.82,13.09c-1.61,0-2.91,1.31-2.91,2.91s1.31,2.91,2.91,2.91,2.91-1.31,2.91-2.91-1.31-2.91-2.91-2.91Z"/>
        </g>
        <g>
          <circle class="cls-2" cx="11.73" cy="16.01" r="3.16"/>
          <path class="cls-3" d="M11.73,19.42c-1.88,0-3.41-1.53-3.41-3.41s1.53-3.41,3.41-3.41,3.41,1.53,3.41,3.41-1.53,3.41-3.41,3.41ZM11.73,13.09c-1.61,0-2.91,1.31-2.91,2.91s1.31,2.91,2.91,2.91,2.91-1.31,2.91-2.91-1.31-2.91-2.91-2.91Z"/>
        </g>
        <g>
          <circle class="cls-2" cx="15.57" cy="16.01" r="3.16"/>
          <path class="cls-3" d="M15.57,19.42c-1.88,0-3.41-1.53-3.41-3.41s1.53-3.41,3.41-3.41,3.41,1.53,3.41,3.41-1.53,3.41-3.41,3.41ZM15.57,13.09c-1.61,0-2.91,1.31-2.91,2.91s1.31,2.91,2.91,2.91,2.91-1.31,2.91-2.91-1.31-2.91-2.91-2.91Z"/>
        </g>
        <g>
          <circle class="cls-2" cx="9.69" cy="20.65" r="3.16"/>
          <path class="cls-3" d="M9.69,24.06c-1.88,0-3.41-1.53-3.41-3.41s1.53-3.41,3.41-3.41,3.41,1.53,3.41,3.41-1.53,3.41-3.41,3.41ZM9.69,17.73c-1.61,0-2.91,1.31-2.91,2.91s1.31,2.91,2.91,2.91,2.91-1.31,2.91-2.91-1.31-2.91-2.91-2.91Z"/>
        </g>
        <g>
          <circle class="cls-2" cx="13.6" cy="20.65" r="3.16"/>
          <path class="cls-3" d="M13.6,24.06c-1.88,0-3.41-1.53-3.41-3.41s1.53-3.41,3.41-3.41,3.41,1.53,3.41,3.41-1.53,3.41-3.41,3.41ZM13.6,17.73c-1.61,0-2.91,1.31-2.91,2.91s1.31,2.91,2.91,2.91,2.91-1.31,2.91-2.91-1.31-2.91-2.91-2.91Z"/>
        </g>
        <g>
          <circle class="cls-2" cx="11.3" cy="25.48" r="3.16"/>
          <path class="cls-3" d="M11.3,28.89c-1.88,0-3.41-1.53-3.41-3.41s1.53-3.41,3.41-3.41,3.41,1.53,3.41,3.41-1.53,3.41-3.41,3.41ZM11.3,22.56c-1.61,0-2.91,1.31-2.91,2.91s1.31,2.91,2.91,2.91,2.91-1.31,2.91-2.91-1.31-2.91-2.91-2.91Z"/>
        </g>
        <g>
          <circle class="cls-2" cx="21.11" cy="11.67" r="3.16"/>
          <path class="cls-3" d="M21.11,15.09c-1.88,0-3.41-1.53-3.41-3.41s1.53-3.41,3.41-3.41,3.41,1.53,3.41,3.41-1.53,3.41-3.41,3.41ZM21.11,8.76c-1.61,0-2.91,1.31-2.91,2.91s1.31,2.91,2.91,2.91,2.91-1.31,2.91-2.91-1.31-2.91-2.91-2.91Z"/>
        </g>
        <g>
          <circle class="cls-2" cx="19.32" cy="16.01" r="3.16"/>
          <path class="cls-3" d="M19.32,19.42c-1.88,0-3.41-1.53-3.41-3.41s1.53-3.41,3.41-3.41,3.41,1.53,3.41,3.41-1.53,3.41-3.41,3.41ZM19.32,13.09c-1.61,0-2.91,1.31-2.91,2.91s1.31,2.91,2.91,2.91,2.91-1.31,2.91-2.91-1.31-2.91-2.91-2.91Z"/>
        </g>
        <g>
          <circle class="cls-2" cx="17.44" cy="20.65" r="3.16"/>
          <path class="cls-3" d="M17.44,24.06c-1.88,0-3.41-1.53-3.41-3.41s1.53-3.41,3.41-3.41,3.41,1.53,3.41,3.41-1.53,3.41-3.41,3.41ZM17.44,17.73c-1.61,0-2.91,1.31-2.91,2.91s1.31,2.91,2.91,2.91,2.91-1.31,2.91-2.91-1.31-2.91-2.91-2.91Z"/>
        </g>
        <g>
          <circle class="cls-2" cx="15.21" cy="25.48" r="3.16"/>
          <path class="cls-3" d="M15.21,28.89c-1.88,0-3.41-1.53-3.41-3.41s1.53-3.41,3.41-3.41,3.41,1.53,3.41,3.41-1.53,3.41-3.41,3.41ZM15.21,22.56c-1.61,0-2.91,1.31-2.91,2.91s1.31,2.91,2.91,2.91,2.91-1.31,2.91-2.91-1.31-2.91-2.91-2.91Z"/>
        </g>
        <g>
          <circle class="cls-2" cx="12.73" cy="30.27" r="3.16"/>
          <path class="cls-3" d="M12.73,33.69c-1.88,0-3.41-1.53-3.41-3.41s1.53-3.41,3.41-3.41,3.41,1.53,3.41,3.41-1.53,3.41-3.41,3.41ZM12.73,27.36c-1.61,0-2.91,1.31-2.91,2.91s1.31,2.91,2.91,2.91,2.91-1.31,2.91-2.91-1.31-2.91-2.91-2.91Z"/>
        </g>
      </g>
      <g>
        <g>
          <circle class="cls-2" cx="17.52" cy="11.35" r="3.16"/>
          <path class="cls-3" d="M17.52,14.76c-1.88,0-3.41-1.53-3.41-3.41s1.53-3.41,3.41-3.41,3.41,1.53,3.41,3.41-1.53,3.41-3.41,3.41ZM17.52,8.43c-1.61,0-2.91,1.31-2.91,2.91s1.31,2.91,2.91,2.91,2.91-1.31,2.91-2.91-1.31-2.91-2.91-2.91Z"/>
        </g>
        <g>
          <circle class="cls-2" cx="21.43" cy="11.35" r="3.16"/>
          <path class="cls-3" d="M21.43,14.76c-1.88,0-3.41-1.53-3.41-3.41s1.53-3.41,3.41-3.41,3.41,1.53,3.41,3.41-1.53,3.41-3.41,3.41ZM21.43,8.43c-1.61,0-2.91,1.31-2.91,2.91s1.31,2.91,2.91,2.91,2.91-1.31,2.91-2.91-1.31-2.91-2.91-2.91Z"/>
        </g>
        <g>
          <circle class="cls-2" cx="25.27" cy="11.35" r="3.16"/>
          <path class="cls-3" d="M25.27,14.76c-1.88,0-3.41-1.53-3.41-3.41s1.53-3.41,3.41-3.41,3.41,1.53,3.41,3.41-1.53,3.41-3.41,3.41ZM25.27,8.43c-1.61,0-2.91,1.31-2.91,2.91s1.31,2.91,2.91,2.91,2.91-1.31,2.91-2.91-1.31-2.91-2.91-2.91Z"/>
        </g>
        <g>
          <circle class="cls-2" cx="29.02" cy="11.35" r="3.16"/>
          <path class="cls-3" d="M29.02,14.76c-1.88,0-3.41-1.53-3.41-3.41s1.53-3.41,3.41-3.41,3.41,1.53,3.41,3.41-1.53,3.41-3.41,3.41ZM29.02,8.43c-1.61,0-2.91,1.31-2.91,2.91s1.31,2.91,2.91,2.91,2.91-1.31,2.91-2.91-1.31-2.91-2.91-2.91Z"/>
        </g>
        <g>
          <circle class="cls-2" cx="19.32" cy="15.68" r="3.16"/>
          <path class="cls-3" d="M19.32,19.09c-1.88,0-3.41-1.53-3.41-3.41s1.53-3.41,3.41-3.41,3.41,1.53,3.41,3.41-1.53,3.41-3.41,3.41ZM19.32,12.77c-1.61,0-2.91,1.31-2.91,2.91s1.31,2.91,2.91,2.91,2.91-1.31,2.91-2.91-1.31-2.91-2.91-2.91Z"/>
        </g>
        <g>
          <circle class="cls-2" cx="23.23" cy="15.68" r="3.16"/>
          <path class="cls-3" d="M23.23,19.09c-1.88,0-3.41-1.53-3.41-3.41s1.53-3.41,3.41-3.41,3.41,1.53,3.41,3.41-1.53,3.41-3.41,3.41ZM23.23,12.77c-1.61,0-2.91,1.31-2.91,2.91s1.31,2.91,2.91,2.91,2.91-1.31,2.91-2.91-1.31-2.91-2.91-2.91Z"/>
        </g>
        <g>
          <circle class="cls-2" cx="27.07" cy="15.68" r="3.16"/>
          <path class="cls-3" d="M27.07,19.09c-1.88,0-3.41-1.53-3.41-3.41s1.53-3.41,3.41-3.41,3.41,1.53,3.41,3.41-1.53,3.41-3.41,3.41ZM27.07,12.77c-1.61,0-2.91,1.31-2.91,2.91s1.31,2.91,2.91,2.91,2.91-1.31,2.91-2.91-1.31-2.91-2.91-2.91Z"/>
        </g>
        <g>
          <circle class="cls-2" cx="21.19" cy="20.32" r="3.16"/>
          <path class="cls-3" d="M21.19,23.73c-1.88,0-3.41-1.53-3.41-3.41s1.53-3.41,3.41-3.41,3.41,1.53,3.41,3.41-1.53,3.41-3.41,3.41ZM21.19,17.41c-1.61,0-2.91,1.31-2.91,2.91s1.31,2.91,2.91,2.91,2.91-1.31,2.91-2.91-1.31-2.91-2.91-2.91Z"/>
        </g>
        <g>
          <circle class="cls-2" cx="25.1" cy="20.32" r="3.16"/>
          <path class="cls-3" d="M25.1,23.73c-1.88,0-3.41-1.53-3.41-3.41s1.53-3.41,3.41-3.41,3.41,1.53,3.41,3.41-1.53,3.41-3.41,3.41ZM25.1,17.41c-1.61,0-2.91,1.31-2.91,2.91s1.31,2.91,2.91,2.91,2.91-1.31,2.91-2.91-1.31-2.91-2.91-2.91Z"/>
        </g>
        <g>
          <circle class="cls-2" cx="22.8" cy="25.15" r="3.16"/>
          <path class="cls-3" d="M22.8,28.57c-1.88,0-3.41-1.53-3.41-3.41s1.53-3.41,3.41-3.41,3.41,1.53,3.41,3.41-1.53,3.41-3.41,3.41ZM22.8,22.24c-1.61,0-2.91,1.31-2.91,2.91s1.31,2.91,2.91,2.91,2.91-1.31,2.91-2.91-1.31-2.91-2.91-2.91Z"/>
        </g>
        <g>
          <circle class="cls-2" cx="32.62" cy="11.35" r="3.16"/>
          <path class="cls-3" d="M32.61,14.76c-1.88,0-3.41-1.53-3.41-3.41s1.53-3.41,3.41-3.41,3.41,1.53,3.41,3.41-1.53,3.41-3.41,3.41ZM32.61,8.43c-1.61,0-2.91,1.31-2.91,2.91s1.31,2.91,2.91,2.91,2.91-1.31,2.91-2.91-1.31-2.91-2.91-2.91Z"/>
        </g>
        <g>
          <circle class="cls-2" cx="30.82" cy="15.68" r="3.16"/>
          <path class="cls-3" d="M30.82,19.09c-1.88,0-3.41-1.53-3.41-3.41s1.53-3.41,3.41-3.41,3.41,1.53,3.41,3.41-1.53,3.41-3.41,3.41ZM30.82,12.77c-1.61,0-2.91,1.31-2.91,2.91s1.31,2.91,2.91,2.91,2.91-1.31,2.91-2.91-1.31-2.91-2.91-2.91Z"/>
        </g>
        <g>
          <circle class="cls-2" cx="28.94" cy="20.32" r="3.16"/>
          <path class="cls-3" d="M28.94,23.73c-1.88,0-3.41-1.53-3.41-3.41s1.53-3.41,3.41-3.41,3.41,1.53,3.41,3.41-1.53,3.41-3.41,3.41ZM28.94,17.41c-1.61,0-2.91,1.31-2.91,2.91s1.31,2.91,2.91,2.91,2.91-1.31,2.91-2.91-1.31-2.91-2.91-2.91Z"/>
        </g>
        <g>
          <circle class="cls-2" cx="26.71" cy="25.15" r="3.16"/>
          <path class="cls-3" d="M26.71,28.57c-1.88,0-3.41-1.53-3.41-3.41s1.53-3.41,3.41-3.41,3.41,1.53,3.41,3.41-1.53,3.41-3.41,3.41ZM26.71,22.24c-1.61,0-2.91,1.31-2.91,2.91s1.31,2.91,2.91,2.91,2.91-1.31,2.91-2.91-1.31-2.91-2.91-2.91Z"/>
        </g>
        <g>
          <circle class="cls-2" cx="24.23" cy="29.95" r="3.16"/>
          <path class="cls-3" d="M24.23,33.36c-1.88,0-3.41-1.53-3.41-3.41s1.53-3.41,3.41-3.41,3.41,1.53,3.41,3.41-1.53,3.41-3.41,3.41ZM24.23,27.03c-1.61,0-2.91,1.31-2.91,2.91s1.31,2.91,2.91,2.91,2.91-1.31,2.91-2.91-1.31-2.91-2.91-2.91Z"/>
        </g>
      </g>
      <g>
        <g>
          <circle class="cls-2" cx="29.13" cy="11.35" r="3.16"/>
          <path class="cls-3" d="M29.13,14.76c-1.88,0-3.41-1.53-3.41-3.41s1.53-3.41,3.41-3.41,3.41,1.53,3.41,3.41-1.53,3.41-3.41,3.41ZM29.13,8.43c-1.61,0-2.91,1.31-2.91,2.91s1.31,2.91,2.91,2.91,2.91-1.31,2.91-2.91-1.31-2.91-2.91-2.91Z"/>
        </g>
        <g>
          <circle class="cls-2" cx="33.04" cy="11.35" r="3.16"/>
          <path class="cls-3" d="M33.04,14.76c-1.88,0-3.41-1.53-3.41-3.41s1.53-3.41,3.41-3.41,3.41,1.53,3.41,3.41-1.53,3.41-3.41,3.41ZM33.04,8.43c-1.61,0-2.91,1.31-2.91,2.91s1.31,2.91,2.91,2.91,2.91-1.31,2.91-2.91-1.31-2.91-2.91-2.91Z"/>
        </g>
        <g>
          <circle class="cls-2" cx="36.88" cy="11.35" r="3.16"/>
          <path class="cls-3" d="M36.88,14.76c-1.88,0-3.41-1.53-3.41-3.41s1.53-3.41,3.41-3.41,3.41,1.53,3.41,3.41-1.53,3.41-3.41,3.41ZM36.88,8.43c-1.61,0-2.91,1.31-2.91,2.91s1.31,2.91,2.91,2.91,2.91-1.31,2.91-2.91-1.31-2.91-2.91-2.91Z"/>
        </g>
        <g>
          <circle class="cls-2" cx="40.63" cy="11.35" r="3.16"/>
          <path class="cls-3" d="M40.63,14.76c-1.88,0-3.41-1.53-3.41-3.41s1.53-3.41,3.41-3.41,3.41,1.53,3.41,3.41-1.53,3.41-3.41,3.41ZM40.63,8.43c-1.61,0-2.91,1.31-2.91,2.91s1.31,2.91,2.91,2.91,2.91-1.31,2.91-2.91-1.31-2.91-2.91-2.91Z"/>
        </g>
        <g>
          <circle class="cls-2" cx="30.93" cy="15.68" r="3.16"/>
          <path class="cls-3" d="M30.93,19.09c-1.88,0-3.41-1.53-3.41-3.41s1.53-3.41,3.41-3.41,3.41,1.53,3.41,3.41-1.53,3.41-3.41,3.41ZM30.93,12.77c-1.61,0-2.91,1.31-2.91,2.91s1.31,2.91,2.91,2.91,2.91-1.31,2.91-2.91-1.31-2.91-2.91-2.91Z"/>
        </g>
        <g>
          <circle class="cls-2" cx="34.84" cy="15.68" r="3.16"/>
          <path class="cls-3" d="M34.84,19.09c-1.88,0-3.41-1.53-3.41-3.41s1.53-3.41,3.41-3.41,3.41,1.53,3.41,3.41-1.53,3.41-3.41,3.41ZM34.84,12.77c-1.61,0-2.91,1.31-2.91,2.91s1.31,2.91,2.91,2.91,2.91-1.31,2.91-2.91-1.31-2.91-2.91-2.91Z"/>
        </g>
        <g>
          <circle class="cls-2" cx="38.68" cy="15.68" r="3.16"/>
          <path class="cls-3" d="M38.68,19.09c-1.88,0-3.41-1.53-3.41-3.41s1.53-3.41,3.41-3.41,3.41,1.53,3.41,3.41-1.53,3.41-3.41,3.41ZM38.68,12.77c-1.61,0-2.91,1.31-2.91,2.91s1.31,2.91,2.91,2.91,2.91-1.31,2.91-2.91-1.31-2.91-2.91-2.91Z"/>
        </g>
        <g>
          <circle class="cls-2" cx="32.8" cy="20.32" r="3.16"/>
          <path class="cls-3" d="M32.8,23.73c-1.88,0-3.41-1.53-3.41-3.41s1.53-3.41,3.41-3.41,3.41,1.53,3.41,3.41-1.53,3.41-3.41,3.41ZM32.8,17.41c-1.61,0-2.91,1.31-2.91,2.91s1.31,2.91,2.91,2.91,2.91-1.31,2.91-2.91-1.31-2.91-2.91-2.91Z"/>
        </g>
        <g>
          <circle class="cls-2" cx="36.71" cy="20.32" r="3.16"/>
          <path class="cls-3" d="M36.71,23.73c-1.88,0-3.41-1.53-3.41-3.41s1.53-3.41,3.41-3.41,3.41,1.53,3.41,3.41-1.53,3.41-3.41,3.41ZM36.71,17.41c-1.61,0-2.91,1.31-2.91,2.91s1.31,2.91,2.91,2.91,2.91-1.31,2.91-2.91-1.31-2.91-2.91-2.91Z"/>
        </g>
        <g>
          <circle class="cls-2" cx="34.41" cy="25.15" r="3.16"/>
          <path class="cls-3" d="M34.41,28.57c-1.88,0-3.41-1.53-3.41-3.41s1.53-3.41,3.41-3.41,3.41,1.53,3.41,3.41-1.53,3.41-3.41,3.41ZM34.41,22.24c-1.61,0-2.91,1.31-2.91,2.91s1.31,2.91,2.91,2.91,2.91-1.31,2.91-2.91-1.31-2.91-2.91-2.91Z"/>
        </g>
        <g>
          <circle class="cls-2" cx="44.22" cy="11.35" r="3.16"/>
          <path class="cls-3" d="M44.22,14.76c-1.88,0-3.41-1.53-3.41-3.41s1.53-3.41,3.41-3.41,3.41,1.53,3.41,3.41-1.53,3.41-3.41,3.41ZM44.22,8.43c-1.61,0-2.91,1.31-2.91,2.91s1.31,2.91,2.91,2.91,2.91-1.31,2.91-2.91-1.31-2.91-2.91-2.91Z"/>
        </g>
        <g>
          <circle class="cls-2" cx="42.43" cy="15.68" r="3.16"/>
          <path class="cls-3" d="M42.43,19.09c-1.88,0-3.41-1.53-3.41-3.41s1.53-3.41,3.41-3.41,3.41,1.53,3.41,3.41-1.53,3.41-3.41,3.41ZM42.43,12.77c-1.61,0-2.91,1.31-2.91,2.91s1.31,2.91,2.91,2.91,2.91-1.31,2.91-2.91-1.31-2.91-2.91-2.91Z"/>
        </g>
        <g>
          <circle class="cls-2" cx="40.55" cy="20.32" r="3.16"/>
          <path class="cls-3" d="M40.55,23.73c-1.88,0-3.41-1.53-3.41-3.41s1.53-3.41,3.41-3.41,3.41,1.53,3.41,3.41-1.53,3.41-3.41,3.41ZM40.55,17.41c-1.61,0-2.91,1.31-2.91,2.91s1.31,2.91,2.91,2.91,2.91-1.31,2.91-2.91-1.31-2.91-2.91-2.91Z"/>
        </g>
        <g>
          <circle class="cls-2" cx="38.32" cy="25.15" r="3.16"/>
          <path class="cls-3" d="M38.32,28.57c-1.88,0-3.41-1.53-3.41-3.41s1.53-3.41,3.41-3.41,3.41,1.53,3.41,3.41-1.53,3.41-3.41,3.41ZM38.32,22.24c-1.61,0-2.91,1.31-2.91,2.91s1.31,2.91,2.91,2.91,2.91-1.31,2.91-2.91-1.31-2.91-2.91-2.91Z"/>
        </g>
        <g>
          <circle class="cls-2" cx="35.84" cy="29.95" r="3.16"/>
          <path class="cls-3" d="M35.84,33.36c-1.88,0-3.41-1.53-3.41-3.41s1.53-3.41,3.41-3.41,3.41,1.53,3.41,3.41-1.53,3.41-3.41,3.41ZM35.84,27.03c-1.61,0-2.91,1.31-2.91,2.91s1.31,2.91,2.91,2.91,2.91-1.31,2.91-2.91-1.31-2.91-2.91-2.91Z"/>
        </g>
      </g>
    </g>
  </g>
</svg>