<svg width="1025" height="1024" viewBox="0 0 1025 1024" fill="none" xmlns="http://www.w3.org/2000/svg">
<rect width="1025" height="1024" fill="white"/>
<g clip-path="url(#clip0_118_26)">
<mask id="mask0_118_26" style="mask-type:luminance" maskUnits="userSpaceOnUse" x="494" y="202" width="306" height="322">
<path d="M623.996 202.887C580.551 202.887 540.86 218.854 510.153 245.019C525.976 274.405 535.094 307.949 535.094 343.507C535.094 389.531 520.076 432.2 494.599 466.684C520.344 480.907 542.871 500.363 560.437 523.71C597.044 491.373 645.048 471.649 697.611 471.649C721.211 471.649 743.872 475.674 764.924 482.92C786.646 453.669 799.519 417.574 799.519 378.394C799.519 281.516 720.808 202.753 623.996 202.753V202.887Z" fill="white"/>
</mask>
<g mask="url(#mask0_118_26)">
<path d="M775.696 -79.0001L-139.169 309.598L201.91 1113.67L1116.77 725.07L775.696 -79.0001Z" fill="url(#paint0_linear_118_26)"/>
</g>
<mask id="mask1_118_26" style="mask-type:luminance" maskUnits="userSpaceOnUse" x="152" y="168" width="351" height="333">
<path d="M249.349 500.766C286.894 463.866 338.116 441.056 394.702 441.056C419.107 441.056 442.572 445.349 464.429 453.132C488.565 423.076 502.913 384.969 502.913 343.507C502.913 246.763 424.202 168 327.523 168C230.845 168 152 246.763 152 343.641C152 412.341 191.691 472.051 249.349 500.766Z" fill="white"/>
</mask>
<g mask="url(#mask1_118_26)">
<path d="M775.696 -78.9999L-139.169 309.598L201.91 1113.67L1116.77 725.07L775.696 -78.9999Z" fill="url(#paint1_linear_118_26)"/>
</g>
<mask id="mask2_118_26" style="mask-type:luminance" maskUnits="userSpaceOnUse" x="554" y="503" width="320" height="352">
<path d="M697.611 503.852C651.35 503.852 609.246 521.832 578.003 551.217C593.557 580.334 602.407 613.611 602.407 648.766C602.407 698.949 584.439 745.107 554.805 781.067C586.585 825.749 638.88 855 697.745 855C794.558 855 873.268 776.236 873.268 679.359C873.268 582.481 794.558 503.718 697.745 503.718L697.611 503.852Z" fill="white"/>
</mask>
<g mask="url(#mask2_118_26)">
<path d="M775.696 -79.0001L-139.169 309.598L201.91 1113.67L1116.77 725.07L775.696 -79.0001Z" fill="url(#paint2_linear_118_26)"/>
</g>
<mask id="mask3_118_26" style="mask-type:luminance" maskUnits="userSpaceOnUse" x="219" y="473" width="352" height="352">
<path d="M570.226 648.766C570.226 551.888 491.515 473.125 394.702 473.125C297.89 473.125 219.179 551.888 219.179 648.766C219.179 745.643 297.89 824.407 394.702 824.407C491.515 824.407 570.226 745.643 570.226 648.766Z" fill="white"/>
</mask>
<g mask="url(#mask3_118_26)">
<path d="M775.696 -79.0001L-139.169 309.598L201.91 1113.67L1116.77 725.07L775.696 -79.0001Z" fill="url(#paint3_linear_118_26)"/>
</g>
</g>
<defs>
<linearGradient id="paint0_linear_118_26" x1="311.8" y1="100.062" x2="653.926" y2="905.518" gradientUnits="userSpaceOnUse">
<stop offset="0.12" stop-color="#61F2A9"/>
<stop offset="0.58" stop-color="#A1F3B9"/>
<stop offset="0.83" stop-color="#C1F4C1"/>
</linearGradient>
<linearGradient id="paint1_linear_118_26" x1="311.8" y1="100.062" x2="653.926" y2="905.518" gradientUnits="userSpaceOnUse">
<stop offset="0.12" stop-color="#61F2A9"/>
<stop offset="0.58" stop-color="#A1F3B9"/>
<stop offset="0.83" stop-color="#C1F4C1"/>
</linearGradient>
<linearGradient id="paint2_linear_118_26" x1="311.8" y1="100.062" x2="653.926" y2="905.518" gradientUnits="userSpaceOnUse">
<stop offset="0.12" stop-color="#61F2A9"/>
<stop offset="0.58" stop-color="#A1F3B9"/>
<stop offset="0.83" stop-color="#C1F4C1"/>
</linearGradient>
<linearGradient id="paint3_linear_118_26" x1="311.8" y1="100.062" x2="653.926" y2="905.518" gradientUnits="userSpaceOnUse">
<stop offset="0.12" stop-color="#61F2A9"/>
<stop offset="0.58" stop-color="#A1F3B9"/>
<stop offset="0.83" stop-color="#C1F4C1"/>
</linearGradient>
<clipPath id="clip0_118_26">
<rect width="721" height="687" fill="white" transform="translate(152 168)"/>
</clipPath>
</defs>
</svg>
