<?xml version="1.0" encoding="UTF-8"?>
<svg id="Layer_2" data-name="Layer 2" xmlns="http://www.w3.org/2000/svg" viewBox="0 0 252.22 292.79">
  <defs>
    <style>
      .cls-1 {
        fill: #fff;
      }

      .cls-1, .cls-2 {
        stroke-width: 0px;
      }

      .cls-2 {
        fill: #00cb7a;
      }
    </style>
  </defs>
  <g id="Layer_1-2" data-name="Layer 1">
    <g>
      <g>
        <circle class="cls-2" cx="38.74" cy="38.74" r="36.62"/>
        <path class="cls-1" d="M38.75,77.49C17.38,77.49,0,60.11,0,38.74S17.38,0,38.75,0s38.74,17.38,38.74,38.74-17.38,38.75-38.74,38.75ZM38.75,4.24C19.72,4.24,4.24,19.72,4.24,38.74s15.48,34.51,34.51,34.51,34.5-15.48,34.5-34.51S57.77,4.24,38.75,4.24Z"/>
      </g>
      <g>
        <circle class="cls-2" cx="84.02" cy="38.74" r="36.62"/>
        <path class="cls-1" d="M84.02,77.49c-21.36,0-38.74-17.38-38.74-38.75S62.66,0,84.02,0s38.74,17.38,38.74,38.74-17.38,38.75-38.74,38.75ZM84.02,4.24c-19.02,0-34.5,15.48-34.5,34.5s15.48,34.51,34.5,34.51,34.5-15.48,34.5-34.51S103.05,4.24,84.02,4.24Z"/>
      </g>
      <g>
        <circle class="cls-2" cx="128.48" cy="38.74" r="36.62"/>
        <path class="cls-1" d="M128.48,77.49c-21.36,0-38.74-17.38-38.74-38.75S107.12,0,128.48,0s38.74,17.38,38.74,38.74-17.38,38.75-38.74,38.75ZM128.48,4.24c-19.02,0-34.5,15.48-34.5,34.5s15.48,34.51,34.5,34.51,34.5-15.48,34.5-34.51-15.48-34.5-34.5-34.5Z"/>
      </g>
      <g>
        <circle class="cls-2" cx="171.88" cy="38.74" r="36.62"/>
        <path class="cls-1" d="M171.88,77.49c-21.36,0-38.75-17.38-38.75-38.75S150.51,0,171.88,0s38.74,17.38,38.74,38.74-17.38,38.75-38.74,38.75ZM171.88,4.24c-19.03,0-34.51,15.48-34.51,34.5s15.48,34.51,34.51,34.51,34.5-15.48,34.5-34.51-15.48-34.5-34.5-34.5Z"/>
      </g>
      <g>
        <circle class="cls-2" cx="59.54" cy="88.91" r="36.62"/>
        <path class="cls-1" d="M59.54,127.65c-21.36,0-38.74-17.38-38.74-38.74s17.38-38.74,38.74-38.74,38.74,17.38,38.74,38.74-17.38,38.74-38.74,38.74ZM59.54,54.41c-19.02,0-34.5,15.48-34.5,34.5s15.48,34.5,34.5,34.5,34.5-15.48,34.5-34.5-15.48-34.5-34.5-34.5Z"/>
      </g>
      <g>
        <circle class="cls-2" cx="104.82" cy="88.91" r="36.62"/>
        <path class="cls-1" d="M104.82,127.65c-21.36,0-38.75-17.38-38.75-38.74s17.38-38.74,38.75-38.74,38.74,17.38,38.74,38.74-17.38,38.74-38.74,38.74ZM104.82,54.41c-19.03,0-34.51,15.48-34.51,34.5s15.48,34.5,34.51,34.5,34.5-15.48,34.5-34.5-15.48-34.5-34.5-34.5Z"/>
      </g>
      <g>
        <circle class="cls-2" cx="149.28" cy="88.91" r="36.62"/>
        <path class="cls-1" d="M149.28,127.65c-21.36,0-38.75-17.38-38.75-38.74s17.38-38.74,38.75-38.74,38.74,17.38,38.74,38.74-17.38,38.74-38.74,38.74ZM149.28,54.41c-19.03,0-34.51,15.48-34.51,34.5s15.48,34.5,34.51,34.5,34.5-15.48,34.5-34.5-15.48-34.5-34.5-34.5Z"/>
      </g>
      <g>
        <circle class="cls-2" cx="81.24" cy="142.62" r="36.62"/>
        <path class="cls-1" d="M81.24,181.37c-21.36,0-38.74-17.38-38.74-38.74s17.38-38.74,38.74-38.74,38.74,17.38,38.74,38.74-17.38,38.74-38.74,38.74ZM81.24,108.12c-19.02,0-34.5,15.48-34.5,34.5s15.48,34.5,34.5,34.5,34.5-15.48,34.5-34.5-15.48-34.5-34.5-34.5Z"/>
      </g>
      <g>
        <circle class="cls-2" cx="126.52" cy="142.62" r="36.62"/>
        <path class="cls-1" d="M126.52,181.37c-21.36,0-38.74-17.38-38.74-38.74s17.38-38.74,38.74-38.74,38.75,17.38,38.75,38.74-17.38,38.74-38.75,38.74ZM126.52,108.12c-19.02,0-34.5,15.48-34.5,34.5s15.48,34.5,34.5,34.5,34.51-15.48,34.51-34.5-15.48-34.5-34.51-34.5Z"/>
      </g>
      <g>
        <circle class="cls-2" cx="99.89" cy="198.56" r="36.62"/>
        <path class="cls-1" d="M99.88,237.3c-21.36,0-38.74-17.38-38.74-38.74s17.38-38.74,38.74-38.74,38.75,17.38,38.75,38.74-17.38,38.74-38.75,38.74ZM99.88,164.06c-19.02,0-34.5,15.48-34.5,34.5s15.48,34.5,34.5,34.5,34.51-15.48,34.51-34.5-15.48-34.5-34.51-34.5Z"/>
      </g>
      <g>
        <circle class="cls-2" cx="213.48" cy="38.74" r="36.62"/>
        <path class="cls-1" d="M213.48,77.49c-21.36,0-38.75-17.38-38.75-38.75S192.11,0,213.48,0s38.74,17.38,38.74,38.74-17.38,38.75-38.74,38.75ZM213.48,4.24c-19.03,0-34.51,15.48-34.51,34.5s15.48,34.51,34.51,34.51,34.5-15.48,34.5-34.51-15.48-34.5-34.5-34.5Z"/>
      </g>
      <g>
        <circle class="cls-2" cx="192.68" cy="88.91" r="36.62"/>
        <path class="cls-1" d="M192.68,127.65c-21.36,0-38.74-17.38-38.74-38.74s17.38-38.74,38.74-38.74,38.74,17.38,38.74,38.74-17.38,38.74-38.74,38.74ZM192.68,54.41c-19.02,0-34.5,15.48-34.5,34.5s15.48,34.5,34.5,34.5,34.5-15.48,34.5-34.5-15.48-34.5-34.5-34.5Z"/>
      </g>
      <g>
        <circle class="cls-2" cx="170.98" cy="142.62" r="36.62"/>
        <path class="cls-1" d="M170.97,181.37c-21.36,0-38.74-17.38-38.74-38.74s17.38-38.74,38.74-38.74,38.75,17.38,38.75,38.74-17.38,38.74-38.75,38.74ZM170.97,108.12c-19.02,0-34.5,15.48-34.5,34.5s15.48,34.5,34.5,34.5,34.51-15.48,34.51-34.5-15.48-34.5-34.51-34.5Z"/>
      </g>
      <g>
        <circle class="cls-2" cx="145.17" cy="198.56" r="36.62"/>
        <path class="cls-1" d="M145.17,237.3c-21.36,0-38.74-17.38-38.74-38.74s17.38-38.74,38.74-38.74,38.74,17.38,38.74,38.74-17.38,38.74-38.74,38.74ZM145.17,164.06c-19.02,0-34.5,15.48-34.5,34.5s15.48,34.5,34.5,34.5,34.5-15.48,34.5-34.5-15.48-34.5-34.5-34.5Z"/>
      </g>
      <g>
        <circle class="cls-2" cx="116.4" cy="254.05" r="36.62"/>
        <path class="cls-1" d="M116.4,292.79c-21.36,0-38.75-17.38-38.75-38.74s17.38-38.75,38.75-38.75,38.74,17.38,38.74,38.75-17.38,38.74-38.74,38.74ZM116.4,219.54c-19.03,0-34.51,15.48-34.51,34.51s15.48,34.5,34.51,34.5,34.5-15.48,34.5-34.5-15.48-34.51-34.5-34.51Z"/>
      </g>
    </g>
  </g>
</svg>