<?xml version="1.0" encoding="UTF-8"?>
<svg id="Layer_2" data-name="Layer 2" xmlns="http://www.w3.org/2000/svg" viewBox="0 0 50.24 41.62">
  <defs>
    <style>
      .cls-1 {
        fill: none;
      }

      .cls-1, .cls-2, .cls-3 {
        stroke-width: 0px;
      }

      .cls-2 {
        fill: #a7f8a4;
      }

      .cls-3 {
        fill: #fff;
      }
    </style>
  </defs>
  <g id="Layer_1-2" data-name="Layer 1">
    <rect class="cls-1" width="50.24" height="41.62"/>
    <g>
      <g>
        <circle class="cls-2" cx="17.57" cy="11.51" r="3.16"/>
        <path class="cls-3" d="M17.57,14.92c-1.88,0-3.41-1.53-3.41-3.41s1.53-3.41,3.41-3.41,3.41,1.53,3.41,3.41-1.53,3.41-3.41,3.41ZM17.57,8.6c-1.61,0-2.91,1.31-2.91,2.91s1.31,2.91,2.91,2.91,2.91-1.31,2.91-2.91-1.31-2.91-2.91-2.91Z"/>
      </g>
      <g>
        <circle class="cls-2" cx="21.49" cy="11.51" r="3.16"/>
        <path class="cls-3" d="M21.49,14.92c-1.88,0-3.41-1.53-3.41-3.41s1.53-3.41,3.41-3.41,3.41,1.53,3.41,3.41-1.53,3.41-3.41,3.41ZM21.49,8.6c-1.61,0-2.91,1.31-2.91,2.91s1.31,2.91,2.91,2.91,2.91-1.31,2.91-2.91-1.31-2.91-2.91-2.91Z"/>
      </g>
      <g>
        <circle class="cls-2" cx="25.33" cy="11.51" r="3.16"/>
        <path class="cls-3" d="M25.33,14.92c-1.88,0-3.41-1.53-3.41-3.41s1.53-3.41,3.41-3.41,3.41,1.53,3.41,3.41-1.53,3.41-3.41,3.41ZM25.33,8.6c-1.61,0-2.91,1.31-2.91,2.91s1.31,2.91,2.91,2.91,2.91-1.31,2.91-2.91-1.31-2.91-2.91-2.91Z"/>
      </g>
      <g>
        <circle class="cls-2" cx="29.08" cy="11.51" r="3.16"/>
        <path class="cls-3" d="M29.08,14.92c-1.88,0-3.41-1.53-3.41-3.41s1.53-3.41,3.41-3.41,3.41,1.53,3.41,3.41-1.53,3.41-3.41,3.41ZM29.08,8.6c-1.61,0-2.91,1.31-2.91,2.91s1.31,2.91,2.91,2.91,2.91-1.31,2.91-2.91-1.31-2.91-2.91-2.91Z"/>
      </g>
      <g>
        <circle class="cls-2" cx="19.37" cy="15.84" r="3.16"/>
        <path class="cls-3" d="M19.37,19.26c-1.88,0-3.41-1.53-3.41-3.41s1.53-3.41,3.41-3.41,3.41,1.53,3.41,3.41-1.53,3.41-3.41,3.41ZM19.37,12.93c-1.61,0-2.91,1.31-2.91,2.91s1.31,2.91,2.91,2.91,2.91-1.31,2.91-2.91-1.31-2.91-2.91-2.91Z"/>
      </g>
      <g>
        <circle class="cls-2" cx="23.28" cy="15.84" r="3.16"/>
        <path class="cls-3" d="M23.28,19.26c-1.88,0-3.41-1.53-3.41-3.41s1.53-3.41,3.41-3.41,3.41,1.53,3.41,3.41-1.53,3.41-3.41,3.41ZM23.28,12.93c-1.61,0-2.91,1.31-2.91,2.91s1.31,2.91,2.91,2.91,2.91-1.31,2.91-2.91-1.31-2.91-2.91-2.91Z"/>
      </g>
      <g>
        <circle class="cls-2" cx="27.12" cy="15.84" r="3.16"/>
        <path class="cls-3" d="M27.12,19.26c-1.88,0-3.41-1.53-3.41-3.41s1.53-3.41,3.41-3.41,3.41,1.53,3.41,3.41-1.53,3.41-3.41,3.41ZM27.12,12.93c-1.61,0-2.91,1.31-2.91,2.91s1.31,2.91,2.91,2.91,2.91-1.31,2.91-2.91-1.31-2.91-2.91-2.91Z"/>
      </g>
      <g>
        <circle class="cls-2" cx="21.25" cy="20.48" r="3.16"/>
        <path class="cls-3" d="M21.25,23.9c-1.88,0-3.41-1.53-3.41-3.41s1.53-3.41,3.41-3.41,3.41,1.53,3.41,3.41-1.53,3.41-3.41,3.41ZM21.25,17.57c-1.61,0-2.91,1.31-2.91,2.91s1.31,2.91,2.91,2.91,2.91-1.31,2.91-2.91-1.31-2.91-2.91-2.91Z"/>
      </g>
      <g>
        <circle class="cls-2" cx="25.16" cy="20.48" r="3.16"/>
        <path class="cls-3" d="M25.16,23.9c-1.88,0-3.41-1.53-3.41-3.41s1.53-3.41,3.41-3.41,3.41,1.53,3.41,3.41-1.53,3.41-3.41,3.41ZM25.16,17.57c-1.61,0-2.91,1.31-2.91,2.91s1.31,2.91,2.91,2.91,2.91-1.31,2.91-2.91-1.31-2.91-2.91-2.91Z"/>
      </g>
      <g>
        <circle class="cls-2" cx="22.86" cy="25.31" r="3.16"/>
        <path class="cls-3" d="M22.86,28.73c-1.88,0-3.41-1.53-3.41-3.41s1.53-3.41,3.41-3.41,3.41,1.53,3.41,3.41-1.53,3.41-3.41,3.41ZM22.86,22.4c-1.61,0-2.91,1.31-2.91,2.91s1.31,2.91,2.91,2.91,2.91-1.31,2.91-2.91-1.31-2.91-2.91-2.91Z"/>
      </g>
      <g>
        <circle class="cls-2" cx="32.67" cy="11.51" r="3.16"/>
        <path class="cls-3" d="M32.67,14.92c-1.88,0-3.41-1.53-3.41-3.41s1.53-3.41,3.41-3.41,3.41,1.53,3.41,3.41-1.53,3.41-3.41,3.41ZM32.67,8.6c-1.61,0-2.91,1.31-2.91,2.91s1.31,2.91,2.91,2.91,2.91-1.31,2.91-2.91-1.31-2.91-2.91-2.91Z"/>
      </g>
      <g>
        <circle class="cls-2" cx="30.87" cy="15.84" r="3.16"/>
        <path class="cls-3" d="M30.87,19.26c-1.88,0-3.41-1.53-3.41-3.41s1.53-3.41,3.41-3.41,3.41,1.53,3.41,3.41-1.53,3.41-3.41,3.41ZM30.87,12.93c-1.61,0-2.91,1.31-2.91,2.91s1.31,2.91,2.91,2.91,2.91-1.31,2.91-2.91-1.31-2.91-2.91-2.91Z"/>
      </g>
      <g>
        <circle class="cls-2" cx="29" cy="20.48" r="3.16"/>
        <path class="cls-3" d="M29,23.9c-1.88,0-3.41-1.53-3.41-3.41s1.53-3.41,3.41-3.41,3.41,1.53,3.41,3.41-1.53,3.41-3.41,3.41ZM29,17.57c-1.61,0-2.91,1.31-2.91,2.91s1.31,2.91,2.91,2.91,2.91-1.31,2.91-2.91-1.31-2.91-2.91-2.91Z"/>
      </g>
      <g>
        <circle class="cls-2" cx="26.77" cy="25.31" r="3.16"/>
        <path class="cls-3" d="M26.77,28.73c-1.88,0-3.41-1.53-3.41-3.41s1.53-3.41,3.41-3.41,3.41,1.53,3.41,3.41-1.53,3.41-3.41,3.41ZM26.77,22.4c-1.61,0-2.91,1.31-2.91,2.91s1.31,2.91,2.91,2.91,2.91-1.31,2.91-2.91-1.31-2.91-2.91-2.91Z"/>
      </g>
      <g>
        <circle class="cls-2" cx="24.28" cy="30.11" r="3.16"/>
        <path class="cls-3" d="M24.28,33.52c-1.88,0-3.41-1.53-3.41-3.41s1.53-3.41,3.41-3.41,3.41,1.53,3.41,3.41-1.53,3.41-3.41,3.41ZM24.28,27.19c-1.61,0-2.91,1.31-2.91,2.91s1.31,2.91,2.91,2.91,2.91-1.31,2.91-2.91-1.31-2.91-2.91-2.91Z"/>
      </g>
    </g>
  </g>
</svg>