<?xml version="1.0" encoding="UTF-8"?>
<svg id="Layer_2" data-name="Layer 2" xmlns="http://www.w3.org/2000/svg" viewBox="0 0 379.9 287.71">
  <defs>
    <style>
      .cls-1 {
        fill: #fff;
      }

      .cls-1, .cls-2 {
        stroke-width: 0px;
      }

      .cls-2 {
        fill: #00cb7a;
      }
    </style>
  </defs>
  <g id="Layer_1-2" data-name="Layer 1">
    <g>
      <g>
        <circle class="cls-2" cx="38.07" cy="38.07" r="35.99"/>
        <path class="cls-1" d="M38.07,76.14C17.08,76.14,0,59.06,0,38.07S17.08,0,38.07,0s38.07,17.08,38.07,38.07-17.08,38.07-38.07,38.07ZM38.07,4.16C19.37,4.16,4.16,19.37,4.16,38.07s15.21,33.91,33.91,33.91,33.91-15.21,33.91-33.91S56.76,4.16,38.07,4.16Z"/>
      </g>
      <g>
        <circle class="cls-2" cx="82.56" cy="38.07" r="35.99"/>
        <path class="cls-1" d="M82.57,76.14c-20.99,0-38.07-17.08-38.07-38.07S61.58,0,82.57,0s38.07,17.08,38.07,38.07-17.08,38.07-38.07,38.07ZM82.57,4.16c-18.69,0-33.91,15.21-33.91,33.91s15.21,33.91,33.91,33.91,33.91-15.21,33.91-33.91S101.26,4.16,82.57,4.16Z"/>
      </g>
      <g>
        <circle class="cls-2" cx="126.25" cy="38.07" r="35.99"/>
        <path class="cls-1" d="M126.25,76.14c-20.99,0-38.07-17.08-38.07-38.07S105.26,0,126.25,0s38.07,17.08,38.07,38.07-17.08,38.07-38.07,38.07ZM126.25,4.16c-18.69,0-33.91,15.21-33.91,33.91s15.21,33.91,33.91,33.91,33.91-15.21,33.91-33.91S144.94,4.16,126.25,4.16Z"/>
      </g>
      <g>
        <circle class="cls-2" cx="168.89" cy="38.07" r="35.99"/>
        <path class="cls-1" d="M168.89,76.14c-20.99,0-38.07-17.08-38.07-38.07S147.9,0,168.89,0s38.08,17.08,38.08,38.07-17.08,38.07-38.08,38.07ZM168.89,4.16c-18.69,0-33.91,15.21-33.91,33.91s15.21,33.91,33.91,33.91,33.92-15.21,33.92-33.91-15.21-33.91-33.92-33.91Z"/>
      </g>
      <g>
        <circle class="cls-2" cx="58.51" cy="87.37" r="35.99"/>
        <path class="cls-1" d="M58.51,125.44c-21,0-38.08-17.08-38.08-38.07s17.08-38.07,38.08-38.07,38.07,17.08,38.07,38.07-17.08,38.07-38.07,38.07ZM58.51,53.46c-18.7,0-33.92,15.21-33.92,33.91s15.21,33.91,33.92,33.91,33.91-15.21,33.91-33.91-15.21-33.91-33.91-33.91Z"/>
      </g>
      <g>
        <circle class="cls-2" cx="103" cy="87.37" r="35.99"/>
        <path class="cls-1" d="M103,125.44c-20.99,0-38.07-17.08-38.07-38.07s17.08-38.07,38.07-38.07,38.08,17.08,38.08,38.07-17.08,38.07-38.08,38.07ZM103,53.46c-18.69,0-33.91,15.21-33.91,33.91s15.21,33.91,33.91,33.91,33.92-15.21,33.92-33.91-15.21-33.91-33.92-33.91Z"/>
      </g>
      <g>
        <circle class="cls-2" cx="146.68" cy="87.37" r="35.99"/>
        <path class="cls-1" d="M146.68,125.44c-20.99,0-38.07-17.08-38.07-38.07s17.08-38.07,38.07-38.07,38.08,17.08,38.08,38.07-17.08,38.07-38.08,38.07ZM146.68,53.46c-18.69,0-33.91,15.21-33.91,33.91s15.21,33.91,33.91,33.91,33.92-15.21,33.92-33.91-15.21-33.91-33.92-33.91Z"/>
      </g>
      <g>
        <circle class="cls-2" cx="79.83" cy="140.15" r="35.99"/>
        <path class="cls-1" d="M79.82,178.22c-20.99,0-38.07-17.08-38.07-38.07s17.08-38.07,38.07-38.07,38.08,17.08,38.08,38.07-17.08,38.07-38.08,38.07ZM79.82,106.24c-18.69,0-33.91,15.21-33.91,33.91s15.21,33.91,33.91,33.91,33.92-15.21,33.92-33.91-15.21-33.91-33.92-33.91Z"/>
      </g>
      <g>
        <circle class="cls-2" cx="124.32" cy="140.15" r="35.99"/>
        <path class="cls-1" d="M124.32,178.22c-20.99,0-38.07-17.08-38.07-38.07s17.08-38.07,38.07-38.07,38.07,17.08,38.07,38.07-17.08,38.07-38.07,38.07ZM124.32,106.24c-18.69,0-33.91,15.21-33.91,33.91s15.21,33.91,33.91,33.91,33.91-15.21,33.91-33.91-15.21-33.91-33.91-33.91Z"/>
      </g>
      <g>
        <circle class="cls-2" cx="98.15" cy="195.11" r="35.99"/>
        <path class="cls-1" d="M98.15,233.19c-20.99,0-38.07-17.08-38.07-38.07s17.08-38.07,38.07-38.07,38.07,17.08,38.07,38.07-17.08,38.07-38.07,38.07ZM98.15,161.21c-18.69,0-33.91,15.21-33.91,33.91s15.21,33.91,33.91,33.91,33.91-15.21,33.91-33.91-15.21-33.91-33.91-33.91Z"/>
      </g>
      <g>
        <circle class="cls-2" cx="209.77" cy="38.07" r="35.99"/>
        <path class="cls-1" d="M209.77,76.14c-20.99,0-38.07-17.08-38.07-38.07S188.78,0,209.77,0s38.07,17.08,38.07,38.07-17.08,38.07-38.07,38.07ZM209.77,4.16c-18.69,0-33.91,15.21-33.91,33.91s15.21,33.91,33.91,33.91,33.91-15.21,33.91-33.91-15.21-33.91-33.91-33.91Z"/>
      </g>
      <g>
        <circle class="cls-2" cx="189.33" cy="87.37" r="35.99"/>
        <path class="cls-1" d="M189.33,125.44c-20.99,0-38.07-17.08-38.07-38.07s17.08-38.07,38.07-38.07,38.07,17.08,38.07,38.07-17.08,38.07-38.07,38.07ZM189.33,53.46c-18.69,0-33.91,15.21-33.91,33.91s15.21,33.91,33.91,33.91,33.91-15.21,33.91-33.91-15.21-33.91-33.91-33.91Z"/>
      </g>
      <g>
        <circle class="cls-2" cx="168.01" cy="140.15" r="35.99"/>
        <path class="cls-1" d="M168,178.22c-20.99,0-38.07-17.08-38.07-38.07s17.08-38.07,38.07-38.07,38.07,17.08,38.07,38.07-17.08,38.07-38.07,38.07ZM168,106.24c-18.69,0-33.91,15.21-33.91,33.91s15.21,33.91,33.91,33.91,33.91-15.21,33.91-33.91-15.21-33.91-33.91-33.91Z"/>
      </g>
      <g>
        <circle class="cls-2" cx="142.64" cy="195.11" r="35.99"/>
        <path class="cls-1" d="M142.65,233.19c-21,0-38.08-17.08-38.08-38.07s17.08-38.07,38.08-38.07,38.07,17.08,38.07,38.07-17.08,38.07-38.07,38.07ZM142.65,161.21c-18.7,0-33.92,15.21-33.92,33.91s15.21,33.91,33.92,33.91,33.91-15.21,33.91-33.91-15.21-33.91-33.91-33.91Z"/>
      </g>
      <g>
        <circle class="cls-2" cx="114.37" cy="249.64" r="35.99"/>
        <path class="cls-1" d="M114.37,287.71c-20.99,0-38.07-17.08-38.07-38.07s17.08-38.07,38.07-38.07,38.08,17.08,38.08,38.07-17.08,38.07-38.08,38.07ZM114.37,215.73c-18.69,0-33.91,15.21-33.91,33.91s15.21,33.91,33.91,33.91,33.92-15.21,33.92-33.91-15.21-33.91-33.92-33.91Z"/>
      </g>
    </g>
    <g>
      <g>
        <circle class="cls-2" cx="170.13" cy="38.07" r="35.99"/>
        <path class="cls-1" d="M170.13,76.14c-20.99,0-38.07-17.08-38.07-38.07S149.14,0,170.13,0s38.07,17.08,38.07,38.07-17.08,38.07-38.07,38.07ZM170.13,4.16c-18.69,0-33.91,15.21-33.91,33.91s15.21,33.91,33.91,33.91,33.91-15.21,33.91-33.91-15.21-33.91-33.91-33.91Z"/>
      </g>
      <g>
        <circle class="cls-2" cx="214.62" cy="38.07" r="35.99"/>
        <path class="cls-1" d="M214.62,76.14c-20.99,0-38.07-17.08-38.07-38.07S193.63,0,214.62,0s38.07,17.08,38.07,38.07-17.08,38.07-38.07,38.07ZM214.62,4.16c-18.69,0-33.91,15.21-33.91,33.91s15.21,33.91,33.91,33.91,33.91-15.21,33.91-33.91-15.21-33.91-33.91-33.91Z"/>
      </g>
      <g>
        <circle class="cls-2" cx="258.31" cy="38.07" r="35.99"/>
        <path class="cls-1" d="M258.31,76.14c-20.99,0-38.07-17.08-38.07-38.07S237.32,0,258.31,0s38.07,17.08,38.07,38.07-17.08,38.07-38.07,38.07ZM258.31,4.16c-18.69,0-33.91,15.21-33.91,33.91s15.21,33.91,33.91,33.91,33.91-15.21,33.91-33.91-15.21-33.91-33.91-33.91Z"/>
      </g>
      <g>
        <circle class="cls-2" cx="300.95" cy="38.07" r="35.99"/>
        <path class="cls-1" d="M300.96,76.14c-21,0-38.08-17.08-38.08-38.07S279.96,0,300.96,0s38.07,17.08,38.07,38.07-17.08,38.07-38.07,38.07ZM300.96,4.16c-18.7,0-33.92,15.21-33.92,33.91s15.21,33.91,33.92,33.91,33.91-15.21,33.91-33.91-15.21-33.91-33.91-33.91Z"/>
      </g>
      <g>
        <circle class="cls-2" cx="190.56" cy="87.37" r="35.99"/>
        <path class="cls-1" d="M190.57,125.44c-20.99,0-38.07-17.08-38.07-38.07s17.08-38.07,38.07-38.07,38.07,17.08,38.07,38.07-17.08,38.07-38.07,38.07ZM190.57,53.46c-18.69,0-33.91,15.21-33.91,33.91s15.21,33.91,33.91,33.91,33.91-15.21,33.91-33.91-15.21-33.91-33.91-33.91Z"/>
      </g>
      <g>
        <circle class="cls-2" cx="235.06" cy="87.37" r="35.99"/>
        <path class="cls-1" d="M235.06,125.44c-21,0-38.08-17.08-38.08-38.07s17.08-38.07,38.08-38.07,38.07,17.08,38.07,38.07-17.08,38.07-38.07,38.07ZM235.06,53.46c-18.7,0-33.92,15.21-33.92,33.91s15.21,33.91,33.92,33.91,33.91-15.21,33.91-33.91-15.21-33.91-33.91-33.91Z"/>
      </g>
      <g>
        <circle class="cls-2" cx="278.74" cy="87.37" r="35.99"/>
        <path class="cls-1" d="M278.75,125.44c-21,0-38.08-17.08-38.08-38.07s17.08-38.07,38.08-38.07,38.07,17.08,38.07,38.07-17.08,38.07-38.07,38.07ZM278.75,53.46c-18.7,0-33.92,15.21-33.92,33.91s15.21,33.91,33.92,33.91,33.91-15.21,33.91-33.91-15.21-33.91-33.91-33.91Z"/>
      </g>
      <g>
        <circle class="cls-2" cx="211.89" cy="140.15" r="35.99"/>
        <path class="cls-1" d="M211.89,178.22c-21,0-38.08-17.08-38.08-38.07s17.08-38.07,38.08-38.07,38.07,17.08,38.07,38.07-17.08,38.07-38.07,38.07ZM211.89,106.24c-18.7,0-33.92,15.21-33.92,33.91s15.21,33.91,33.92,33.91,33.91-15.21,33.91-33.91-15.21-33.91-33.91-33.91Z"/>
      </g>
      <g>
        <circle class="cls-2" cx="256.38" cy="140.15" r="35.99"/>
        <path class="cls-1" d="M256.38,178.22c-20.99,0-38.07-17.08-38.07-38.07s17.08-38.07,38.07-38.07,38.08,17.08,38.08,38.07-17.08,38.07-38.08,38.07ZM256.38,106.24c-18.69,0-33.91,15.21-33.91,33.91s15.21,33.91,33.91,33.91,33.92-15.21,33.92-33.91-15.21-33.91-33.92-33.91Z"/>
      </g>
      <g>
        <circle class="cls-2" cx="230.21" cy="195.11" r="35.99"/>
        <path class="cls-1" d="M230.21,233.19c-20.99,0-38.07-17.08-38.07-38.07s17.08-38.07,38.07-38.07,38.07,17.08,38.07,38.07-17.08,38.07-38.07,38.07ZM230.21,161.21c-18.69,0-33.91,15.21-33.91,33.91s15.21,33.91,33.91,33.91,33.91-15.21,33.91-33.91-15.21-33.91-33.91-33.91Z"/>
      </g>
      <g>
        <circle class="cls-2" cx="341.83" cy="38.07" r="35.99"/>
        <path class="cls-1" d="M341.83,76.14c-20.99,0-38.07-17.08-38.07-38.07S320.84,0,341.83,0s38.07,17.08,38.07,38.07-17.08,38.07-38.07,38.07ZM341.83,4.16c-18.69,0-33.91,15.21-33.91,33.91s15.21,33.91,33.91,33.91,33.91-15.21,33.91-33.91-15.21-33.91-33.91-33.91Z"/>
      </g>
      <g>
        <circle class="cls-2" cx="321.39" cy="87.37" r="35.99"/>
        <path class="cls-1" d="M321.39,125.44c-20.99,0-38.07-17.08-38.07-38.07s17.08-38.07,38.07-38.07,38.07,17.08,38.07,38.07-17.08,38.07-38.07,38.07ZM321.39,53.46c-18.69,0-33.91,15.21-33.91,33.91s15.21,33.91,33.91,33.91,33.91-15.21,33.91-33.91-15.21-33.91-33.91-33.91Z"/>
      </g>
      <g>
        <circle class="cls-2" cx="300.07" cy="140.15" r="35.99"/>
        <path class="cls-1" d="M300.06,178.22c-20.99,0-38.07-17.08-38.07-38.07s17.08-38.07,38.07-38.07,38.08,17.08,38.08,38.07-17.08,38.07-38.08,38.07ZM300.06,106.24c-18.69,0-33.91,15.21-33.91,33.91s15.21,33.91,33.91,33.91,33.92-15.21,33.92-33.91-15.21-33.91-33.92-33.91Z"/>
      </g>
      <g>
        <circle class="cls-2" cx="274.7" cy="195.11" r="35.99"/>
        <path class="cls-1" d="M274.71,233.19c-20.99,0-38.07-17.08-38.07-38.07s17.08-38.07,38.07-38.07,38.07,17.08,38.07,38.07-17.08,38.07-38.07,38.07ZM274.71,161.21c-18.69,0-33.91,15.21-33.91,33.91s15.21,33.91,33.91,33.91,33.91-15.21,33.91-33.91-15.21-33.91-33.91-33.91Z"/>
      </g>
      <g>
        <circle class="cls-2" cx="246.43" cy="249.64" r="35.99"/>
        <path class="cls-1" d="M246.44,287.71c-21,0-38.08-17.08-38.08-38.07s17.08-38.07,38.08-38.07,38.07,17.08,38.07,38.07-17.08,38.07-38.07,38.07ZM246.44,215.73c-18.7,0-33.92,15.21-33.92,33.91s15.21,33.91,33.92,33.91,33.91-15.21,33.91-33.91-15.21-33.91-33.91-33.91Z"/>
      </g>
    </g>
  </g>
</svg>