<?xml version="1.0" encoding="UTF-8"?>
<svg id="Layer_2" data-name="Layer 2" xmlns="http://www.w3.org/2000/svg" viewBox="0 0 50.24 41.62">
  <defs>
    <style>
      .cls-1 {
        fill: none;
      }

      .cls-1, .cls-2, .cls-3 {
        stroke-width: 0px;
      }

      .cls-2 {
        fill: #a7f8a4;
      }

      .cls-3 {
        fill: #fff;
      }
    </style>
  </defs>
  <g id="Layer_1-2" data-name="Layer 1">
    <rect class="cls-1" width="50.24" height="41.62"/>
    <g>
      <g>
        <circle class="cls-2" cx="11.77" cy="11.51" r="3.16"/>
        <path class="cls-3" d="M11.77,14.92c-1.88,0-3.41-1.53-3.41-3.41s1.53-3.41,3.41-3.41,3.41,1.53,3.41,3.41-1.53,3.41-3.41,3.41ZM11.77,8.6c-1.61,0-2.91,1.31-2.91,2.91s1.31,2.91,2.91,2.91,2.91-1.31,2.91-2.91-1.31-2.91-2.91-2.91Z"/>
      </g>
      <g>
        <circle class="cls-2" cx="15.68" cy="11.51" r="3.16"/>
        <path class="cls-3" d="M15.68,14.92c-1.88,0-3.41-1.53-3.41-3.41s1.53-3.41,3.41-3.41,3.41,1.53,3.41,3.41-1.53,3.41-3.41,3.41ZM15.68,8.6c-1.61,0-2.91,1.31-2.91,2.91s1.31,2.91,2.91,2.91,2.91-1.31,2.91-2.91-1.31-2.91-2.91-2.91Z"/>
      </g>
      <g>
        <circle class="cls-2" cx="19.52" cy="11.51" r="3.16"/>
        <path class="cls-3" d="M19.52,14.92c-1.88,0-3.41-1.53-3.41-3.41s1.53-3.41,3.41-3.41,3.41,1.53,3.41,3.41-1.53,3.41-3.41,3.41ZM19.52,8.6c-1.61,0-2.91,1.31-2.91,2.91s1.31,2.91,2.91,2.91,2.91-1.31,2.91-2.91-1.31-2.91-2.91-2.91Z"/>
      </g>
      <g>
        <circle class="cls-2" cx="23.27" cy="11.51" r="3.16"/>
        <path class="cls-3" d="M23.27,14.92c-1.88,0-3.41-1.53-3.41-3.41s1.53-3.41,3.41-3.41,3.41,1.53,3.41,3.41-1.53,3.41-3.41,3.41ZM23.27,8.6c-1.61,0-2.91,1.31-2.91,2.91s1.31,2.91,2.91,2.91,2.91-1.31,2.91-2.91-1.31-2.91-2.91-2.91Z"/>
      </g>
      <g>
        <circle class="cls-2" cx="13.57" cy="15.84" r="3.16"/>
        <path class="cls-3" d="M13.57,19.26c-1.88,0-3.41-1.53-3.41-3.41s1.53-3.41,3.41-3.41,3.41,1.53,3.41,3.41-1.53,3.41-3.41,3.41ZM13.57,12.93c-1.61,0-2.91,1.31-2.91,2.91s1.31,2.91,2.91,2.91,2.91-1.31,2.91-2.91-1.31-2.91-2.91-2.91Z"/>
      </g>
      <g>
        <circle class="cls-2" cx="17.48" cy="15.84" r="3.16"/>
        <path class="cls-3" d="M17.48,19.26c-1.88,0-3.41-1.53-3.41-3.41s1.53-3.41,3.41-3.41,3.41,1.53,3.41,3.41-1.53,3.41-3.41,3.41ZM17.48,12.93c-1.61,0-2.91,1.31-2.91,2.91s1.31,2.91,2.91,2.91,2.91-1.31,2.91-2.91-1.31-2.91-2.91-2.91Z"/>
      </g>
      <g>
        <circle class="cls-2" cx="21.32" cy="15.84" r="3.16"/>
        <path class="cls-3" d="M21.32,19.26c-1.88,0-3.41-1.53-3.41-3.41s1.53-3.41,3.41-3.41,3.41,1.53,3.41,3.41-1.53,3.41-3.41,3.41ZM21.32,12.93c-1.61,0-2.91,1.31-2.91,2.91s1.31,2.91,2.91,2.91,2.91-1.31,2.91-2.91-1.31-2.91-2.91-2.91Z"/>
      </g>
      <g>
        <circle class="cls-2" cx="15.44" cy="20.48" r="3.16"/>
        <path class="cls-3" d="M15.44,23.9c-1.88,0-3.41-1.53-3.41-3.41s1.53-3.41,3.41-3.41,3.41,1.53,3.41,3.41-1.53,3.41-3.41,3.41ZM15.44,17.57c-1.61,0-2.91,1.31-2.91,2.91s1.31,2.91,2.91,2.91,2.91-1.31,2.91-2.91-1.31-2.91-2.91-2.91Z"/>
      </g>
      <g>
        <circle class="cls-2" cx="19.35" cy="20.48" r="3.16"/>
        <path class="cls-3" d="M19.35,23.9c-1.88,0-3.41-1.53-3.41-3.41s1.53-3.41,3.41-3.41,3.41,1.53,3.41,3.41-1.53,3.41-3.41,3.41ZM19.35,17.57c-1.61,0-2.91,1.31-2.91,2.91s1.31,2.91,2.91,2.91,2.91-1.31,2.91-2.91-1.31-2.91-2.91-2.91Z"/>
      </g>
      <g>
        <circle class="cls-2" cx="17.05" cy="25.31" r="3.16"/>
        <path class="cls-3" d="M17.05,28.73c-1.88,0-3.41-1.53-3.41-3.41s1.53-3.41,3.41-3.41,3.41,1.53,3.41,3.41-1.53,3.41-3.41,3.41ZM17.05,22.4c-1.61,0-2.91,1.31-2.91,2.91s1.31,2.91,2.91,2.91,2.91-1.31,2.91-2.91-1.31-2.91-2.91-2.91Z"/>
      </g>
      <g>
        <circle class="cls-2" cx="26.86" cy="11.51" r="3.16"/>
        <path class="cls-3" d="M26.86,14.92c-1.88,0-3.41-1.53-3.41-3.41s1.53-3.41,3.41-3.41,3.41,1.53,3.41,3.41-1.53,3.41-3.41,3.41ZM26.86,8.6c-1.61,0-2.91,1.31-2.91,2.91s1.31,2.91,2.91,2.91,2.91-1.31,2.91-2.91-1.31-2.91-2.91-2.91Z"/>
      </g>
      <g>
        <circle class="cls-2" cx="25.07" cy="15.84" r="3.16"/>
        <path class="cls-3" d="M25.07,19.26c-1.88,0-3.41-1.53-3.41-3.41s1.53-3.41,3.41-3.41,3.41,1.53,3.41,3.41-1.53,3.41-3.41,3.41ZM25.07,12.93c-1.61,0-2.91,1.31-2.91,2.91s1.31,2.91,2.91,2.91,2.91-1.31,2.91-2.91-1.31-2.91-2.91-2.91Z"/>
      </g>
      <g>
        <circle class="cls-2" cx="23.19" cy="20.48" r="3.16"/>
        <path class="cls-3" d="M23.19,23.9c-1.88,0-3.41-1.53-3.41-3.41s1.53-3.41,3.41-3.41,3.41,1.53,3.41,3.41-1.53,3.41-3.41,3.41ZM23.19,17.57c-1.61,0-2.91,1.31-2.91,2.91s1.31,2.91,2.91,2.91,2.91-1.31,2.91-2.91-1.31-2.91-2.91-2.91Z"/>
      </g>
      <g>
        <circle class="cls-2" cx="20.96" cy="25.31" r="3.16"/>
        <path class="cls-3" d="M20.96,28.73c-1.88,0-3.41-1.53-3.41-3.41s1.53-3.41,3.41-3.41,3.41,1.53,3.41,3.41-1.53,3.41-3.41,3.41ZM20.96,22.4c-1.61,0-2.91,1.31-2.91,2.91s1.31,2.91,2.91,2.91,2.91-1.31,2.91-2.91-1.31-2.91-2.91-2.91Z"/>
      </g>
      <g>
        <circle class="cls-2" cx="18.48" cy="30.11" r="3.16"/>
        <path class="cls-3" d="M18.48,33.52c-1.88,0-3.41-1.53-3.41-3.41s1.53-3.41,3.41-3.41,3.41,1.53,3.41,3.41-1.53,3.41-3.41,3.41ZM18.48,27.19c-1.61,0-2.91,1.31-2.91,2.91s1.31,2.91,2.91,2.91,2.91-1.31,2.91-2.91-1.31-2.91-2.91-2.91Z"/>
      </g>
      <g>
        <circle class="cls-2" cx="23.38" cy="11.51" r="3.16"/>
        <path class="cls-3" d="M23.38,14.92c-1.88,0-3.41-1.53-3.41-3.41s1.53-3.41,3.41-3.41,3.41,1.53,3.41,3.41-1.53,3.41-3.41,3.41ZM23.38,8.6c-1.61,0-2.91,1.31-2.91,2.91s1.31,2.91,2.91,2.91,2.91-1.31,2.91-2.91-1.31-2.91-2.91-2.91Z"/>
      </g>
      <g>
        <circle class="cls-2" cx="27.29" cy="11.51" r="3.16"/>
        <path class="cls-3" d="M27.29,14.92c-1.88,0-3.41-1.53-3.41-3.41s1.53-3.41,3.41-3.41,3.41,1.53,3.41,3.41-1.53,3.41-3.41,3.41ZM27.29,8.6c-1.61,0-2.91,1.31-2.91,2.91s1.31,2.91,2.91,2.91,2.91-1.31,2.91-2.91-1.31-2.91-2.91-2.91Z"/>
      </g>
      <g>
        <circle class="cls-2" cx="31.13" cy="11.51" r="3.16"/>
        <path class="cls-3" d="M31.13,14.92c-1.88,0-3.41-1.53-3.41-3.41s1.53-3.41,3.41-3.41,3.41,1.53,3.41,3.41-1.53,3.41-3.41,3.41ZM31.13,8.6c-1.61,0-2.91,1.31-2.91,2.91s1.31,2.91,2.91,2.91,2.91-1.31,2.91-2.91-1.31-2.91-2.91-2.91Z"/>
      </g>
      <g>
        <circle class="cls-2" cx="34.88" cy="11.51" r="3.16"/>
        <path class="cls-3" d="M34.88,14.92c-1.88,0-3.41-1.53-3.41-3.41s1.53-3.41,3.41-3.41,3.41,1.53,3.41,3.41-1.53,3.41-3.41,3.41ZM34.88,8.6c-1.61,0-2.91,1.31-2.91,2.91s1.31,2.91,2.91,2.91,2.91-1.31,2.91-2.91-1.31-2.91-2.91-2.91Z"/>
      </g>
      <g>
        <circle class="cls-2" cx="25.18" cy="15.84" r="3.16"/>
        <path class="cls-3" d="M25.18,19.26c-1.88,0-3.41-1.53-3.41-3.41s1.53-3.41,3.41-3.41,3.41,1.53,3.41,3.41-1.53,3.41-3.41,3.41ZM25.18,12.93c-1.61,0-2.91,1.31-2.91,2.91s1.31,2.91,2.91,2.91,2.91-1.31,2.91-2.91-1.31-2.91-2.91-2.91Z"/>
      </g>
      <g>
        <circle class="cls-2" cx="29.09" cy="15.84" r="3.16"/>
        <path class="cls-3" d="M29.09,19.26c-1.88,0-3.41-1.53-3.41-3.41s1.53-3.41,3.41-3.41,3.41,1.53,3.41,3.41-1.53,3.41-3.41,3.41ZM29.09,12.93c-1.61,0-2.91,1.31-2.91,2.91s1.31,2.91,2.91,2.91,2.91-1.31,2.91-2.91-1.31-2.91-2.91-2.91Z"/>
      </g>
      <g>
        <circle class="cls-2" cx="32.93" cy="15.84" r="3.16"/>
        <path class="cls-3" d="M32.93,19.26c-1.88,0-3.41-1.53-3.41-3.41s1.53-3.41,3.41-3.41,3.41,1.53,3.41,3.41-1.53,3.41-3.41,3.41ZM32.93,12.93c-1.61,0-2.91,1.31-2.91,2.91s1.31,2.91,2.91,2.91,2.91-1.31,2.91-2.91-1.31-2.91-2.91-2.91Z"/>
      </g>
      <g>
        <circle class="cls-2" cx="27.05" cy="20.48" r="3.16"/>
        <path class="cls-3" d="M27.05,23.9c-1.88,0-3.41-1.53-3.41-3.41s1.53-3.41,3.41-3.41,3.41,1.53,3.41,3.41-1.53,3.41-3.41,3.41ZM27.05,17.57c-1.61,0-2.91,1.31-2.91,2.91s1.31,2.91,2.91,2.91,2.91-1.31,2.91-2.91-1.31-2.91-2.91-2.91Z"/>
      </g>
      <g>
        <circle class="cls-2" cx="30.96" cy="20.48" r="3.16"/>
        <path class="cls-3" d="M30.96,23.9c-1.88,0-3.41-1.53-3.41-3.41s1.53-3.41,3.41-3.41,3.41,1.53,3.41,3.41-1.53,3.41-3.41,3.41ZM30.96,17.57c-1.61,0-2.91,1.31-2.91,2.91s1.31,2.91,2.91,2.91,2.91-1.31,2.91-2.91-1.31-2.91-2.91-2.91Z"/>
      </g>
      <g>
        <circle class="cls-2" cx="28.66" cy="25.31" r="3.16"/>
        <path class="cls-3" d="M28.66,28.73c-1.88,0-3.41-1.53-3.41-3.41s1.53-3.41,3.41-3.41,3.41,1.53,3.41,3.41-1.53,3.41-3.41,3.41ZM28.66,22.4c-1.61,0-2.91,1.31-2.91,2.91s1.31,2.91,2.91,2.91,2.91-1.31,2.91-2.91-1.31-2.91-2.91-2.91Z"/>
      </g>
      <g>
        <circle class="cls-2" cx="38.47" cy="11.51" r="3.16"/>
        <path class="cls-3" d="M38.47,14.92c-1.88,0-3.41-1.53-3.41-3.41s1.53-3.41,3.41-3.41,3.41,1.53,3.41,3.41-1.53,3.41-3.41,3.41ZM38.47,8.6c-1.61,0-2.91,1.31-2.91,2.91s1.31,2.91,2.91,2.91,2.91-1.31,2.91-2.91-1.31-2.91-2.91-2.91Z"/>
      </g>
      <g>
        <circle class="cls-2" cx="36.68" cy="15.84" r="3.16"/>
        <path class="cls-3" d="M36.68,19.26c-1.88,0-3.41-1.53-3.41-3.41s1.53-3.41,3.41-3.41,3.41,1.53,3.41,3.41-1.53,3.41-3.41,3.41ZM36.68,12.93c-1.61,0-2.91,1.31-2.91,2.91s1.31,2.91,2.91,2.91,2.91-1.31,2.91-2.91-1.31-2.91-2.91-2.91Z"/>
      </g>
      <g>
        <circle class="cls-2" cx="34.8" cy="20.48" r="3.16"/>
        <path class="cls-3" d="M34.8,23.9c-1.88,0-3.41-1.53-3.41-3.41s1.53-3.41,3.41-3.41,3.41,1.53,3.41,3.41-1.53,3.41-3.41,3.41ZM34.8,17.57c-1.61,0-2.91,1.31-2.91,2.91s1.31,2.91,2.91,2.91,2.91-1.31,2.91-2.91-1.31-2.91-2.91-2.91Z"/>
      </g>
      <g>
        <circle class="cls-2" cx="32.57" cy="25.31" r="3.16"/>
        <path class="cls-3" d="M32.57,28.73c-1.88,0-3.41-1.53-3.41-3.41s1.53-3.41,3.41-3.41,3.41,1.53,3.41,3.41-1.53,3.41-3.41,3.41ZM32.57,22.4c-1.61,0-2.91,1.31-2.91,2.91s1.31,2.91,2.91,2.91,2.91-1.31,2.91-2.91-1.31-2.91-2.91-2.91Z"/>
      </g>
      <g>
        <circle class="cls-2" cx="30.09" cy="30.11" r="3.16"/>
        <path class="cls-3" d="M30.09,33.52c-1.88,0-3.41-1.53-3.41-3.41s1.53-3.41,3.41-3.41,3.41,1.53,3.41,3.41-1.53,3.41-3.41,3.41ZM30.09,27.19c-1.61,0-2.91,1.31-2.91,2.91s1.31,2.91,2.91,2.91,2.91-1.31,2.91-2.91-1.31-2.91-2.91-2.91Z"/>
      </g>
    </g>
  </g>
</svg>