<?xml version="1.0" encoding="UTF-8"?>
<svg id="Layer_2" data-name="Layer 2" xmlns="http://www.w3.org/2000/svg" viewBox="0 0 47.69 51.5">
  <defs>
    <style>
      .cls-1 {
        fill: #fff;
        stroke-width: 0px;
      }
    </style>
  </defs>
  <g id="Layer_1-2" data-name="Layer 1">
    <path class="cls-1" d="M47.5,2.36c-.62-1.81-2.59-2.79-4.4-2.17-6.91,2.35-13.29,6.26-18.57,11.31-.17.1-.34.22-.49.36-1.67,1.5-4.36,2.06-7.58,1.59-3.57-.52-7.64-2.29-11.47-4.99-1.43-1.01-3.41-.67-4.41.76-1.01,1.43-.67,3.41.76,4.41,4.63,3.26,9.67,5.43,14.21,6.09.65.09,1.29.15,1.92.18-5.51,8.29-8.48,18.22-8.41,28.15.01,1.84,1.45,3.33,3.26,3.44.08,0,.16,0,.24,0,1.92-.01,3.46-1.58,3.44-3.5-.07-9.12,2.84-18.22,8.2-25.63,5.21-7.21,12.71-12.75,21.13-15.61,1.81-.62,2.79-2.59,2.17-4.4Z"/>
  </g>
</svg>