<?xml version="1.0" encoding="UTF-8"?>
<svg id="Layer_2" data-name="Layer 2" xmlns="http://www.w3.org/2000/svg" viewBox="0 0 50.24 41.62">
  <defs>
    <style>
      .cls-1 {
        fill: none;
      }

      .cls-1, .cls-2, .cls-3, .cls-4 {
        stroke-width: 0px;
      }

      .cls-2 {
        fill: #7b7980;
      }

      .cls-3 {
        fill: #a7f8a4;
      }

      .cls-4 {
        fill: #fff;
      }
    </style>
  </defs>
  <g id="Layer_1-2" data-name="Layer 1">
    <g>
      <rect class="cls-1" width="50.24" height="41.62"/>
      <g>
        <g>
          <g>
            <circle class="cls-3" cx="4.94" cy="11.67" r="3.16"/>
            <path class="cls-4" d="M4.94,15.09c-1.88,0-3.41-1.53-3.41-3.41s1.53-3.41,3.41-3.41,3.41,1.53,3.41,3.41-1.53,3.41-3.41,3.41ZM4.94,8.76c-1.61,0-2.91,1.31-2.91,2.91s1.31,2.91,2.91,2.91,2.91-1.31,2.91-2.91-1.31-2.91-2.91-2.91Z"/>
          </g>
          <g>
            <circle class="cls-3" cx="8.85" cy="11.67" r="3.16"/>
            <path class="cls-4" d="M8.85,15.09c-1.88,0-3.41-1.53-3.41-3.41s1.53-3.41,3.41-3.41,3.41,1.53,3.41,3.41-1.53,3.41-3.41,3.41ZM8.85,8.76c-1.61,0-2.91,1.31-2.91,2.91s1.31,2.91,2.91,2.91,2.91-1.31,2.91-2.91-1.31-2.91-2.91-2.91Z"/>
          </g>
          <g>
            <circle class="cls-3" cx="12.69" cy="11.67" r="3.16"/>
            <path class="cls-4" d="M12.69,15.09c-1.88,0-3.41-1.53-3.41-3.41s1.53-3.41,3.41-3.41,3.41,1.53,3.41,3.41-1.53,3.41-3.41,3.41ZM12.69,8.76c-1.61,0-2.91,1.31-2.91,2.91s1.31,2.91,2.91,2.91,2.91-1.31,2.91-2.91-1.31-2.91-2.91-2.91Z"/>
          </g>
          <g>
            <circle class="cls-3" cx="16.44" cy="11.67" r="3.16"/>
            <path class="cls-4" d="M16.44,15.09c-1.88,0-3.41-1.53-3.41-3.41s1.53-3.41,3.41-3.41,3.41,1.53,3.41,3.41-1.53,3.41-3.41,3.41ZM16.44,8.76c-1.61,0-2.91,1.31-2.91,2.91s1.31,2.91,2.91,2.91,2.91-1.31,2.91-2.91-1.31-2.91-2.91-2.91Z"/>
          </g>
          <g>
            <circle class="cls-3" cx="6.74" cy="16.01" r="3.16"/>
            <path class="cls-4" d="M6.74,19.42c-1.88,0-3.41-1.53-3.41-3.41s1.53-3.41,3.41-3.41,3.41,1.53,3.41,3.41-1.53,3.41-3.41,3.41ZM6.74,13.09c-1.61,0-2.91,1.31-2.91,2.91s1.31,2.91,2.91,2.91,2.91-1.31,2.91-2.91-1.31-2.91-2.91-2.91Z"/>
          </g>
          <g>
            <circle class="cls-3" cx="10.65" cy="16.01" r="3.16"/>
            <path class="cls-4" d="M10.65,19.42c-1.88,0-3.41-1.53-3.41-3.41s1.53-3.41,3.41-3.41,3.41,1.53,3.41,3.41-1.53,3.41-3.41,3.41ZM10.65,13.09c-1.61,0-2.91,1.31-2.91,2.91s1.31,2.91,2.91,2.91,2.91-1.31,2.91-2.91-1.31-2.91-2.91-2.91Z"/>
          </g>
          <g>
            <circle class="cls-3" cx="14.49" cy="16.01" r="3.16"/>
            <path class="cls-4" d="M14.49,19.42c-1.88,0-3.41-1.53-3.41-3.41s1.53-3.41,3.41-3.41,3.41,1.53,3.41,3.41-1.53,3.41-3.41,3.41ZM14.49,13.09c-1.61,0-2.91,1.31-2.91,2.91s1.31,2.91,2.91,2.91,2.91-1.31,2.91-2.91-1.31-2.91-2.91-2.91Z"/>
          </g>
          <g>
            <circle class="cls-3" cx="8.61" cy="20.65" r="3.16"/>
            <path class="cls-4" d="M8.61,24.06c-1.88,0-3.41-1.53-3.41-3.41s1.53-3.41,3.41-3.41,3.41,1.53,3.41,3.41-1.53,3.41-3.41,3.41ZM8.61,17.73c-1.61,0-2.91,1.31-2.91,2.91s1.31,2.91,2.91,2.91,2.91-1.31,2.91-2.91-1.31-2.91-2.91-2.91Z"/>
          </g>
          <g>
            <circle class="cls-3" cx="12.52" cy="20.65" r="3.16"/>
            <path class="cls-4" d="M12.52,24.06c-1.88,0-3.41-1.53-3.41-3.41s1.53-3.41,3.41-3.41,3.41,1.53,3.41,3.41-1.53,3.41-3.41,3.41ZM12.52,17.73c-1.61,0-2.91,1.31-2.91,2.91s1.31,2.91,2.91,2.91,2.91-1.31,2.91-2.91-1.31-2.91-2.91-2.91Z"/>
          </g>
          <g>
            <circle class="cls-3" cx="10.22" cy="25.48" r="3.16"/>
            <path class="cls-4" d="M10.22,28.89c-1.88,0-3.41-1.53-3.41-3.41s1.53-3.41,3.41-3.41,3.41,1.53,3.41,3.41-1.53,3.41-3.41,3.41ZM10.22,22.56c-1.61,0-2.91,1.31-2.91,2.91s1.31,2.91,2.91,2.91,2.91-1.31,2.91-2.91-1.31-2.91-2.91-2.91Z"/>
          </g>
          <g>
            <circle class="cls-3" cx="20.03" cy="11.67" r="3.16"/>
            <path class="cls-4" d="M20.03,15.09c-1.88,0-3.41-1.53-3.41-3.41s1.53-3.41,3.41-3.41,3.41,1.53,3.41,3.41-1.53,3.41-3.41,3.41ZM20.03,8.76c-1.61,0-2.91,1.31-2.91,2.91s1.31,2.91,2.91,2.91,2.91-1.31,2.91-2.91-1.31-2.91-2.91-2.91Z"/>
          </g>
          <g>
            <circle class="cls-3" cx="18.24" cy="16.01" r="3.16"/>
            <path class="cls-4" d="M18.24,19.42c-1.88,0-3.41-1.53-3.41-3.41s1.53-3.41,3.41-3.41,3.41,1.53,3.41,3.41-1.53,3.41-3.41,3.41ZM18.24,13.09c-1.61,0-2.91,1.31-2.91,2.91s1.31,2.91,2.91,2.91,2.91-1.31,2.91-2.91-1.31-2.91-2.91-2.91Z"/>
          </g>
          <g>
            <circle class="cls-3" cx="16.36" cy="20.65" r="3.16"/>
            <path class="cls-4" d="M16.36,24.06c-1.88,0-3.41-1.53-3.41-3.41s1.53-3.41,3.41-3.41,3.41,1.53,3.41,3.41-1.53,3.41-3.41,3.41ZM16.36,17.73c-1.61,0-2.91,1.31-2.91,2.91s1.31,2.91,2.91,2.91,2.91-1.31,2.91-2.91-1.31-2.91-2.91-2.91Z"/>
          </g>
          <g>
            <circle class="cls-3" cx="14.13" cy="25.48" r="3.16"/>
            <path class="cls-4" d="M14.13,28.89c-1.88,0-3.41-1.53-3.41-3.41s1.53-3.41,3.41-3.41,3.41,1.53,3.41,3.41-1.53,3.41-3.41,3.41ZM14.13,22.56c-1.61,0-2.91,1.31-2.91,2.91s1.31,2.91,2.91,2.91,2.91-1.31,2.91-2.91-1.31-2.91-2.91-2.91Z"/>
          </g>
          <g>
            <circle class="cls-3" cx="11.65" cy="30.27" r="3.16"/>
            <path class="cls-4" d="M11.65,33.69c-1.88,0-3.41-1.53-3.41-3.41s1.53-3.41,3.41-3.41,3.41,1.53,3.41,3.41-1.53,3.41-3.41,3.41ZM11.65,27.36c-1.61,0-2.91,1.31-2.91,2.91s1.31,2.91,2.91,2.91,2.91-1.31,2.91-2.91-1.31-2.91-2.91-2.91Z"/>
          </g>
        </g>
        <g>
          <g>
            <circle class="cls-3" cx="16.44" cy="11.35" r="3.16"/>
            <path class="cls-4" d="M16.44,14.76c-1.88,0-3.41-1.53-3.41-3.41s1.53-3.41,3.41-3.41,3.41,1.53,3.41,3.41-1.53,3.41-3.41,3.41ZM16.44,8.43c-1.61,0-2.91,1.31-2.91,2.91s1.31,2.91,2.91,2.91,2.91-1.31,2.91-2.91-1.31-2.91-2.91-2.91Z"/>
          </g>
          <g>
            <circle class="cls-3" cx="20.35" cy="11.35" r="3.16"/>
            <path class="cls-4" d="M20.35,14.76c-1.88,0-3.41-1.53-3.41-3.41s1.53-3.41,3.41-3.41,3.41,1.53,3.41,3.41-1.53,3.41-3.41,3.41ZM20.35,8.43c-1.61,0-2.91,1.31-2.91,2.91s1.31,2.91,2.91,2.91,2.91-1.31,2.91-2.91-1.31-2.91-2.91-2.91Z"/>
          </g>
          <g>
            <circle class="cls-3" cx="24.19" cy="11.35" r="3.16"/>
            <path class="cls-4" d="M24.19,14.76c-1.88,0-3.41-1.53-3.41-3.41s1.53-3.41,3.41-3.41,3.41,1.53,3.41,3.41-1.53,3.41-3.41,3.41ZM24.19,8.43c-1.61,0-2.91,1.31-2.91,2.91s1.31,2.91,2.91,2.91,2.91-1.31,2.91-2.91-1.31-2.91-2.91-2.91Z"/>
          </g>
          <g>
            <circle class="cls-3" cx="27.94" cy="11.35" r="3.16"/>
            <path class="cls-4" d="M27.94,14.76c-1.88,0-3.41-1.53-3.41-3.41s1.53-3.41,3.41-3.41,3.41,1.53,3.41,3.41-1.53,3.41-3.41,3.41ZM27.94,8.43c-1.61,0-2.91,1.31-2.91,2.91s1.31,2.91,2.91,2.91,2.91-1.31,2.91-2.91-1.31-2.91-2.91-2.91Z"/>
          </g>
          <g>
            <circle class="cls-3" cx="18.24" cy="15.68" r="3.16"/>
            <path class="cls-4" d="M18.24,19.09c-1.88,0-3.41-1.53-3.41-3.41s1.53-3.41,3.41-3.41,3.41,1.53,3.41,3.41-1.53,3.41-3.41,3.41ZM18.24,12.77c-1.61,0-2.91,1.31-2.91,2.91s1.31,2.91,2.91,2.91,2.91-1.31,2.91-2.91-1.31-2.91-2.91-2.91Z"/>
          </g>
          <g>
            <circle class="cls-3" cx="22.15" cy="15.68" r="3.16"/>
            <path class="cls-4" d="M22.15,19.09c-1.88,0-3.41-1.53-3.41-3.41s1.53-3.41,3.41-3.41,3.41,1.53,3.41,3.41-1.53,3.41-3.41,3.41ZM22.15,12.77c-1.61,0-2.91,1.31-2.91,2.91s1.31,2.91,2.91,2.91,2.91-1.31,2.91-2.91-1.31-2.91-2.91-2.91Z"/>
          </g>
          <g>
            <circle class="cls-3" cx="25.99" cy="15.68" r="3.16"/>
            <path class="cls-4" d="M25.99,19.09c-1.88,0-3.41-1.53-3.41-3.41s1.53-3.41,3.41-3.41,3.41,1.53,3.41,3.41-1.53,3.41-3.41,3.41ZM25.99,12.77c-1.61,0-2.91,1.31-2.91,2.91s1.31,2.91,2.91,2.91,2.91-1.31,2.91-2.91-1.31-2.91-2.91-2.91Z"/>
          </g>
          <g>
            <circle class="cls-3" cx="20.11" cy="20.32" r="3.16"/>
            <path class="cls-4" d="M20.11,23.73c-1.88,0-3.41-1.53-3.41-3.41s1.53-3.41,3.41-3.41,3.41,1.53,3.41,3.41-1.53,3.41-3.41,3.41ZM20.11,17.41c-1.61,0-2.91,1.31-2.91,2.91s1.31,2.91,2.91,2.91,2.91-1.31,2.91-2.91-1.31-2.91-2.91-2.91Z"/>
          </g>
          <g>
            <circle class="cls-3" cx="24.02" cy="20.32" r="3.16"/>
            <path class="cls-4" d="M24.02,23.73c-1.88,0-3.41-1.53-3.41-3.41s1.53-3.41,3.41-3.41,3.41,1.53,3.41,3.41-1.53,3.41-3.41,3.41ZM24.02,17.41c-1.61,0-2.91,1.31-2.91,2.91s1.31,2.91,2.91,2.91,2.91-1.31,2.91-2.91-1.31-2.91-2.91-2.91Z"/>
          </g>
          <g>
            <circle class="cls-3" cx="21.72" cy="25.15" r="3.16"/>
            <path class="cls-4" d="M21.72,28.57c-1.88,0-3.41-1.53-3.41-3.41s1.53-3.41,3.41-3.41,3.41,1.53,3.41,3.41-1.53,3.41-3.41,3.41ZM21.72,22.24c-1.61,0-2.91,1.31-2.91,2.91s1.31,2.91,2.91,2.91,2.91-1.31,2.91-2.91-1.31-2.91-2.91-2.91Z"/>
          </g>
          <g>
            <circle class="cls-3" cx="31.53" cy="11.35" r="3.16"/>
            <path class="cls-4" d="M31.53,14.76c-1.88,0-3.41-1.53-3.41-3.41s1.53-3.41,3.41-3.41,3.41,1.53,3.41,3.41-1.53,3.41-3.41,3.41ZM31.53,8.43c-1.61,0-2.91,1.31-2.91,2.91s1.31,2.91,2.91,2.91,2.91-1.31,2.91-2.91-1.31-2.91-2.91-2.91Z"/>
          </g>
          <g>
            <circle class="cls-3" cx="29.74" cy="15.68" r="3.16"/>
            <path class="cls-4" d="M29.74,19.09c-1.88,0-3.41-1.53-3.41-3.41s1.53-3.41,3.41-3.41,3.41,1.53,3.41,3.41-1.53,3.41-3.41,3.41ZM29.74,12.77c-1.61,0-2.91,1.31-2.91,2.91s1.31,2.91,2.91,2.91,2.91-1.31,2.91-2.91-1.31-2.91-2.91-2.91Z"/>
          </g>
          <g>
            <circle class="cls-3" cx="27.86" cy="20.32" r="3.16"/>
            <path class="cls-4" d="M27.86,23.73c-1.88,0-3.41-1.53-3.41-3.41s1.53-3.41,3.41-3.41,3.41,1.53,3.41,3.41-1.53,3.41-3.41,3.41ZM27.86,17.41c-1.61,0-2.91,1.31-2.91,2.91s1.31,2.91,2.91,2.91,2.91-1.31,2.91-2.91-1.31-2.91-2.91-2.91Z"/>
          </g>
          <g>
            <circle class="cls-3" cx="25.63" cy="25.15" r="3.16"/>
            <path class="cls-4" d="M25.63,28.57c-1.88,0-3.41-1.53-3.41-3.41s1.53-3.41,3.41-3.41,3.41,1.53,3.41,3.41-1.53,3.41-3.41,3.41ZM25.63,22.24c-1.61,0-2.91,1.31-2.91,2.91s1.31,2.91,2.91,2.91,2.91-1.31,2.91-2.91-1.31-2.91-2.91-2.91Z"/>
          </g>
          <g>
            <circle class="cls-3" cx="23.15" cy="29.95" r="3.16"/>
            <path class="cls-4" d="M23.15,33.36c-1.88,0-3.41-1.53-3.41-3.41s1.53-3.41,3.41-3.41,3.41,1.53,3.41,3.41-1.53,3.41-3.41,3.41ZM23.15,27.03c-1.61,0-2.91,1.31-2.91,2.91s1.31,2.91,2.91,2.91,2.91-1.31,2.91-2.91-1.31-2.91-2.91-2.91Z"/>
          </g>
        </g>
        <g>
          <g>
            <circle class="cls-3" cx="28.05" cy="11.35" r="3.16"/>
            <path class="cls-4" d="M28.05,14.76c-1.88,0-3.41-1.53-3.41-3.41s1.53-3.41,3.41-3.41,3.41,1.53,3.41,3.41-1.53,3.41-3.41,3.41ZM28.05,8.43c-1.61,0-2.91,1.31-2.91,2.91s1.31,2.91,2.91,2.91,2.91-1.31,2.91-2.91-1.31-2.91-2.91-2.91Z"/>
          </g>
          <g>
            <circle class="cls-3" cx="31.96" cy="11.35" r="3.16"/>
            <path class="cls-4" d="M31.96,14.76c-1.88,0-3.41-1.53-3.41-3.41s1.53-3.41,3.41-3.41,3.41,1.53,3.41,3.41-1.53,3.41-3.41,3.41ZM31.96,8.43c-1.61,0-2.91,1.31-2.91,2.91s1.31,2.91,2.91,2.91,2.91-1.31,2.91-2.91-1.31-2.91-2.91-2.91Z"/>
          </g>
          <g>
            <circle class="cls-3" cx="35.8" cy="11.35" r="3.16"/>
            <path class="cls-4" d="M35.8,14.76c-1.88,0-3.41-1.53-3.41-3.41s1.53-3.41,3.41-3.41,3.41,1.53,3.41,3.41-1.53,3.41-3.41,3.41ZM35.8,8.43c-1.61,0-2.91,1.31-2.91,2.91s1.31,2.91,2.91,2.91,2.91-1.31,2.91-2.91-1.31-2.91-2.91-2.91Z"/>
          </g>
          <g>
            <circle class="cls-3" cx="39.55" cy="11.35" r="3.16"/>
            <path class="cls-4" d="M39.55,14.76c-1.88,0-3.41-1.53-3.41-3.41s1.53-3.41,3.41-3.41,3.41,1.53,3.41,3.41-1.53,3.41-3.41,3.41ZM39.55,8.43c-1.61,0-2.91,1.31-2.91,2.91s1.31,2.91,2.91,2.91,2.91-1.31,2.91-2.91-1.31-2.91-2.91-2.91Z"/>
          </g>
          <g>
            <circle class="cls-3" cx="29.85" cy="15.68" r="3.16"/>
            <path class="cls-4" d="M29.85,19.09c-1.88,0-3.41-1.53-3.41-3.41s1.53-3.41,3.41-3.41,3.41,1.53,3.41,3.41-1.53,3.41-3.41,3.41ZM29.85,12.77c-1.61,0-2.91,1.31-2.91,2.91s1.31,2.91,2.91,2.91,2.91-1.31,2.91-2.91-1.31-2.91-2.91-2.91Z"/>
          </g>
          <g>
            <circle class="cls-3" cx="33.76" cy="15.68" r="3.16"/>
            <path class="cls-4" d="M33.76,19.09c-1.88,0-3.41-1.53-3.41-3.41s1.53-3.41,3.41-3.41,3.41,1.53,3.41,3.41-1.53,3.41-3.41,3.41ZM33.76,12.77c-1.61,0-2.91,1.31-2.91,2.91s1.31,2.91,2.91,2.91,2.91-1.31,2.91-2.91-1.31-2.91-2.91-2.91Z"/>
          </g>
          <g>
            <circle class="cls-3" cx="37.6" cy="15.68" r="3.16"/>
            <path class="cls-4" d="M37.6,19.09c-1.88,0-3.41-1.53-3.41-3.41s1.53-3.41,3.41-3.41,3.41,1.53,3.41,3.41-1.53,3.41-3.41,3.41ZM37.6,12.77c-1.61,0-2.91,1.31-2.91,2.91s1.31,2.91,2.91,2.91,2.91-1.31,2.91-2.91-1.31-2.91-2.91-2.91Z"/>
          </g>
          <g>
            <circle class="cls-3" cx="31.72" cy="20.32" r="3.16"/>
            <path class="cls-4" d="M31.72,23.73c-1.88,0-3.41-1.53-3.41-3.41s1.53-3.41,3.41-3.41,3.41,1.53,3.41,3.41-1.53,3.41-3.41,3.41ZM31.72,17.41c-1.61,0-2.91,1.31-2.91,2.91s1.31,2.91,2.91,2.91,2.91-1.31,2.91-2.91-1.31-2.91-2.91-2.91Z"/>
          </g>
          <g>
            <circle class="cls-3" cx="35.63" cy="20.32" r="3.16"/>
            <path class="cls-4" d="M35.63,23.73c-1.88,0-3.41-1.53-3.41-3.41s1.53-3.41,3.41-3.41,3.41,1.53,3.41,3.41-1.53,3.41-3.41,3.41ZM35.63,17.41c-1.61,0-2.91,1.31-2.91,2.91s1.31,2.91,2.91,2.91,2.91-1.31,2.91-2.91-1.31-2.91-2.91-2.91Z"/>
          </g>
          <g>
            <circle class="cls-3" cx="33.33" cy="25.15" r="3.16"/>
            <path class="cls-4" d="M33.33,28.57c-1.88,0-3.41-1.53-3.41-3.41s1.53-3.41,3.41-3.41,3.41,1.53,3.41,3.41-1.53,3.41-3.41,3.41ZM33.33,22.24c-1.61,0-2.91,1.31-2.91,2.91s1.31,2.91,2.91,2.91,2.91-1.31,2.91-2.91-1.31-2.91-2.91-2.91Z"/>
          </g>
          <g>
            <circle class="cls-3" cx="43.14" cy="11.35" r="3.16"/>
            <path class="cls-4" d="M43.14,14.76c-1.88,0-3.41-1.53-3.41-3.41s1.53-3.41,3.41-3.41,3.41,1.53,3.41,3.41-1.53,3.41-3.41,3.41ZM43.14,8.43c-1.61,0-2.91,1.31-2.91,2.91s1.31,2.91,2.91,2.91,2.91-1.31,2.91-2.91-1.31-2.91-2.91-2.91Z"/>
          </g>
          <g>
            <circle class="cls-3" cx="41.35" cy="15.68" r="3.16"/>
            <path class="cls-4" d="M41.35,19.09c-1.88,0-3.41-1.53-3.41-3.41s1.53-3.41,3.41-3.41,3.41,1.53,3.41,3.41-1.53,3.41-3.41,3.41ZM41.35,12.77c-1.61,0-2.91,1.31-2.91,2.91s1.31,2.91,2.91,2.91,2.91-1.31,2.91-2.91-1.31-2.91-2.91-2.91Z"/>
          </g>
          <g>
            <circle class="cls-3" cx="39.47" cy="20.32" r="3.16"/>
            <path class="cls-4" d="M39.47,23.73c-1.88,0-3.41-1.53-3.41-3.41s1.53-3.41,3.41-3.41,3.41,1.53,3.41,3.41-1.53,3.41-3.41,3.41ZM39.47,17.41c-1.61,0-2.91,1.31-2.91,2.91s1.31,2.91,2.91,2.91,2.91-1.31,2.91-2.91-1.31-2.91-2.91-2.91Z"/>
          </g>
          <g>
            <circle class="cls-3" cx="37.24" cy="25.15" r="3.16"/>
            <path class="cls-4" d="M37.24,28.57c-1.88,0-3.41-1.53-3.41-3.41s1.53-3.41,3.41-3.41,3.41,1.53,3.41,3.41-1.53,3.41-3.41,3.41ZM37.24,22.24c-1.61,0-2.91,1.31-2.91,2.91s1.31,2.91,2.91,2.91,2.91-1.31,2.91-2.91-1.31-2.91-2.91-2.91Z"/>
          </g>
          <g>
            <circle class="cls-3" cx="34.76" cy="29.95" r="3.16"/>
            <path class="cls-4" d="M34.76,33.36c-1.88,0-3.41-1.53-3.41-3.41s1.53-3.41,3.41-3.41,3.41,1.53,3.41,3.41-1.53,3.41-3.41,3.41ZM34.76,27.03c-1.61,0-2.91,1.31-2.91,2.91s1.31,2.91,2.91,2.91,2.91-1.31,2.91-2.91-1.31-2.91-2.91-2.91Z"/>
          </g>
        </g>
        <path class="cls-2" d="M43.93,29.79v-.49h3.43v.49h-3.43ZM45.38,31.26v-3.43h.52v3.43h-.52Z"/>
        <path class="cls-2" d="M45.6,32.77c-1.72,0-3.12-1.4-3.12-3.12s1.4-3.12,3.12-3.12,3.12,1.4,3.12,3.12-1.4,3.12-3.12,3.12ZM45.6,27.03c-1.44,0-2.62,1.18-2.62,2.62s1.18,2.62,2.62,2.62,2.62-1.18,2.62-2.62-1.18-2.62-2.62-2.62Z"/>
      </g>
    </g>
  </g>
</svg>