<?xml version="1.0" encoding="UTF-8"?>
<svg id="Layer_1" data-name="Layer 1" xmlns="http://www.w3.org/2000/svg" viewBox="0 0 533.11 286.95">
  <defs>
    <style>
      .cls-1 {
        fill: #7b7980;
      }

      .cls-1, .cls-2, .cls-3 {
        stroke-width: 0px;
      }

      .cls-2 {
        fill: #fff;
      }

      .cls-3 {
        fill: #00cb7a;
      }
    </style>
  </defs>
  <g>
    <g>
      <circle class="cls-3" cx="37.48" cy="41.14" r="35.44"/>
      <path class="cls-2" d="M37.49,78.62C16.82,78.62,0,61.8,0,41.13S16.82,3.65,37.49,3.65s37.49,16.82,37.49,37.49-16.82,37.49-37.49,37.49ZM37.49,7.75C19.08,7.75,4.1,22.73,4.1,41.13s14.98,33.39,33.39,33.39,33.39-14.98,33.39-33.39S55.89,7.75,37.49,7.75Z"/>
    </g>
    <g>
      <circle class="cls-3" cx="81.3" cy="41.14" r="35.44"/>
      <path class="cls-2" d="M81.3,78.62c-20.67,0-37.49-16.82-37.49-37.49S60.63,3.65,81.3,3.65s37.49,16.82,37.49,37.49-16.82,37.49-37.49,37.49ZM81.3,7.75c-18.41,0-33.39,14.98-33.39,33.39s14.98,33.39,33.39,33.39,33.39-14.98,33.39-33.39S99.71,7.75,81.3,7.75Z"/>
    </g>
    <g>
      <circle class="cls-3" cx="124.31" cy="41.14" r="35.44"/>
      <path class="cls-2" d="M124.31,78.62c-20.67,0-37.49-16.82-37.49-37.49S103.65,3.65,124.31,3.65s37.49,16.82,37.49,37.49-16.82,37.49-37.49,37.49ZM124.31,7.75c-18.41,0-33.39,14.98-33.39,33.39s14.98,33.39,33.39,33.39,33.39-14.98,33.39-33.39S142.72,7.75,124.31,7.75Z"/>
    </g>
    <g>
      <circle class="cls-3" cx="166.3" cy="41.14" r="35.44"/>
      <path class="cls-2" d="M166.3,78.62c-20.67,0-37.49-16.82-37.49-37.49S145.63,3.65,166.3,3.65s37.5,16.82,37.5,37.49-16.82,37.49-37.5,37.49ZM166.3,7.75c-18.41,0-33.39,14.98-33.39,33.39s14.98,33.39,33.39,33.39,33.4-14.98,33.4-33.39-14.98-33.39-33.4-33.39Z"/>
    </g>
    <g>
      <circle class="cls-3" cx="57.61" cy="89.67" r="35.44"/>
      <path class="cls-2" d="M57.61,127.16c-20.68,0-37.5-16.82-37.5-37.49s16.82-37.49,37.5-37.49,37.49,16.82,37.49,37.49-16.82,37.49-37.49,37.49ZM57.61,56.29c-18.42,0-33.4,14.98-33.4,33.39s14.98,33.39,33.4,33.39,33.39-14.98,33.39-33.39-14.98-33.39-33.39-33.39Z"/>
    </g>
    <g>
      <circle class="cls-3" cx="101.42" cy="89.67" r="35.44"/>
      <path class="cls-2" d="M101.42,127.16c-20.67,0-37.49-16.82-37.49-37.49s16.82-37.49,37.49-37.49,37.5,16.82,37.5,37.49-16.82,37.49-37.5,37.49ZM101.42,56.29c-18.41,0-33.39,14.98-33.39,33.39s14.98,33.39,33.39,33.39,33.4-14.98,33.4-33.39-14.98-33.39-33.4-33.39Z"/>
    </g>
    <g>
      <circle class="cls-3" cx="144.44" cy="89.67" r="35.44"/>
      <path class="cls-2" d="M144.43,127.16c-20.67,0-37.49-16.82-37.49-37.49s16.82-37.49,37.49-37.49,37.5,16.82,37.5,37.49-16.82,37.49-37.5,37.49ZM144.43,56.29c-18.41,0-33.39,14.98-33.39,33.39s14.98,33.39,33.39,33.39,33.4-14.98,33.4-33.39-14.98-33.39-33.4-33.39Z"/>
    </g>
    <g>
      <circle class="cls-3" cx="78.6" cy="141.65" r="35.44"/>
      <path class="cls-2" d="M78.6,179.13c-20.67,0-37.49-16.82-37.49-37.49s16.82-37.49,37.49-37.49,37.5,16.82,37.5,37.49-16.82,37.49-37.5,37.49ZM78.6,108.26c-18.41,0-33.39,14.98-33.39,33.39s14.98,33.39,33.39,33.39,33.4-14.98,33.4-33.39-14.98-33.39-33.4-33.39Z"/>
    </g>
    <g>
      <circle class="cls-3" cx="122.42" cy="141.65" r="35.44"/>
      <path class="cls-2" d="M122.41,179.13c-20.67,0-37.49-16.82-37.49-37.49s16.82-37.49,37.49-37.49,37.49,16.82,37.49,37.49-16.82,37.49-37.49,37.49ZM122.41,108.26c-18.41,0-33.39,14.98-33.39,33.39s14.98,33.39,33.39,33.39,33.39-14.98,33.39-33.39-14.98-33.39-33.39-33.39Z"/>
    </g>
    <g>
      <circle class="cls-3" cx="96.65" cy="195.77" r="35.44"/>
      <path class="cls-2" d="M96.65,233.26c-20.67,0-37.49-16.82-37.49-37.49s16.82-37.49,37.49-37.49,37.49,16.82,37.49,37.49-16.82,37.49-37.49,37.49ZM96.65,162.38c-18.41,0-33.39,14.98-33.39,33.39s14.98,33.39,33.39,33.39,33.39-14.98,33.39-33.39-14.98-33.39-33.39-33.39Z"/>
    </g>
    <g>
      <circle class="cls-3" cx="206.55" cy="41.14" r="35.44"/>
      <path class="cls-2" d="M206.55,78.62c-20.67,0-37.49-16.82-37.49-37.49S185.89,3.65,206.55,3.65s37.49,16.82,37.49,37.49-16.82,37.49-37.49,37.49ZM206.55,7.75c-18.41,0-33.39,14.98-33.39,33.39s14.98,33.39,33.39,33.39,33.39-14.98,33.39-33.39-14.98-33.39-33.39-33.39Z"/>
    </g>
    <g>
      <circle class="cls-3" cx="186.43" cy="89.67" r="35.44"/>
      <path class="cls-2" d="M186.43,127.16c-20.67,0-37.49-16.82-37.49-37.49s16.82-37.49,37.49-37.49,37.49,16.82,37.49,37.49-16.82,37.49-37.49,37.49ZM186.43,56.29c-18.41,0-33.39,14.98-33.39,33.39s14.98,33.39,33.39,33.39,33.39-14.98,33.39-33.39-14.98-33.39-33.39-33.39Z"/>
    </g>
    <g>
      <circle class="cls-3" cx="165.43" cy="141.65" r="35.44"/>
      <path class="cls-2" d="M165.43,179.13c-20.67,0-37.49-16.82-37.49-37.49s16.82-37.49,37.49-37.49,37.49,16.82,37.49,37.49-16.82,37.49-37.49,37.49ZM165.43,108.26c-18.41,0-33.39,14.98-33.39,33.39s14.98,33.39,33.39,33.39,33.39-14.98,33.39-33.39-14.98-33.39-33.39-33.39Z"/>
    </g>
    <g>
      <circle class="cls-3" cx="140.46" cy="195.77" r="35.44"/>
      <path class="cls-2" d="M140.46,233.26c-20.68,0-37.5-16.82-37.5-37.49s16.82-37.49,37.5-37.49,37.49,16.82,37.49,37.49-16.82,37.49-37.49,37.49ZM140.46,162.38c-18.42,0-33.4,14.98-33.4,33.39s14.98,33.39,33.4,33.39,33.39-14.98,33.39-33.39-14.98-33.39-33.39-33.39Z"/>
    </g>
    <g>
      <circle class="cls-3" cx="112.62" cy="249.46" r="35.44"/>
      <path class="cls-2" d="M112.62,286.95c-20.67,0-37.49-16.82-37.49-37.49s16.82-37.49,37.49-37.49,37.5,16.82,37.5,37.49-16.82,37.49-37.5,37.49ZM112.62,216.07c-18.41,0-33.39,14.98-33.39,33.39s14.98,33.39,33.39,33.39,33.4-14.98,33.4-33.39-14.98-33.39-33.4-33.39Z"/>
    </g>
  </g>
  <g>
    <g>
      <circle class="cls-3" cx="166.3" cy="37.48" r="35.44"/>
      <path class="cls-2" d="M166.3,74.97c-20.67,0-37.49-16.82-37.49-37.49S145.63,0,166.3,0s37.5,16.82,37.5,37.49-16.82,37.49-37.5,37.49ZM166.3,4.1c-18.41,0-33.39,14.98-33.39,33.39s14.98,33.39,33.39,33.39,33.4-14.98,33.4-33.39-14.98-33.39-33.4-33.39Z"/>
    </g>
    <g>
      <circle class="cls-3" cx="210.12" cy="37.48" r="35.44"/>
      <path class="cls-2" d="M210.11,74.97c-20.67,0-37.49-16.82-37.49-37.49S189.45,0,210.11,0s37.49,16.82,37.49,37.49-16.82,37.49-37.49,37.49ZM210.11,4.1c-18.41,0-33.39,14.98-33.39,33.39s14.98,33.39,33.39,33.39,33.39-14.98,33.39-33.39-14.98-33.39-33.39-33.39Z"/>
    </g>
    <g>
      <circle class="cls-3" cx="253.13" cy="37.48" r="35.44"/>
      <path class="cls-2" d="M253.13,74.97c-20.67,0-37.49-16.82-37.49-37.49S232.46,0,253.13,0s37.49,16.82,37.49,37.49-16.82,37.49-37.49,37.49ZM253.13,4.1c-18.41,0-33.39,14.98-33.39,33.39s14.98,33.39,33.39,33.39,33.39-14.98,33.39-33.39-14.98-33.39-33.39-33.39Z"/>
    </g>
    <g>
      <circle class="cls-3" cx="295.12" cy="37.48" r="35.44"/>
      <path class="cls-2" d="M295.12,74.97c-20.67,0-37.49-16.82-37.49-37.49S274.46,0,295.12,0s37.49,16.82,37.49,37.49-16.82,37.49-37.49,37.49ZM295.12,4.1c-18.41,0-33.39,14.98-33.39,33.39s14.98,33.39,33.39,33.39,33.39-14.98,33.39-33.39-14.98-33.39-33.39-33.39Z"/>
    </g>
    <g>
      <circle class="cls-3" cx="186.43" cy="86.02" r="35.44"/>
      <path class="cls-2" d="M186.43,123.51c-20.67,0-37.49-16.82-37.49-37.49s16.82-37.49,37.49-37.49,37.49,16.82,37.49,37.49-16.82,37.49-37.49,37.49ZM186.43,52.63c-18.41,0-33.39,14.98-33.39,33.39s14.98,33.39,33.39,33.39,33.39-14.98,33.39-33.39-14.98-33.39-33.39-33.39Z"/>
    </g>
    <g>
      <circle class="cls-3" cx="230.24" cy="86.02" r="35.44"/>
      <path class="cls-2" d="M230.24,123.51c-20.67,0-37.49-16.82-37.49-37.49s16.82-37.49,37.49-37.49,37.49,16.82,37.49,37.49-16.82,37.49-37.49,37.49ZM230.24,52.63c-18.41,0-33.39,14.98-33.39,33.39s14.98,33.39,33.39,33.39,33.39-14.98,33.39-33.39-14.98-33.39-33.39-33.39Z"/>
    </g>
    <g>
      <circle class="cls-3" cx="273.26" cy="86.02" r="35.44"/>
      <path class="cls-2" d="M273.26,123.51c-20.67,0-37.49-16.82-37.49-37.49s16.82-37.49,37.49-37.49,37.49,16.82,37.49,37.49-16.82,37.49-37.49,37.49ZM273.26,52.63c-18.41,0-33.39,14.98-33.39,33.39s14.98,33.39,33.39,33.39,33.39-14.98,33.39-33.39-14.98-33.39-33.39-33.39Z"/>
    </g>
    <g>
      <circle class="cls-3" cx="207.42" cy="138" r="35.44"/>
      <path class="cls-2" d="M207.42,175.48c-20.67,0-37.49-16.82-37.49-37.49s16.82-37.49,37.49-37.49,37.49,16.82,37.49,37.49-16.82,37.49-37.49,37.49ZM207.42,104.61c-18.41,0-33.39,14.98-33.39,33.39s14.98,33.39,33.39,33.39,33.39-14.98,33.39-33.39-14.98-33.39-33.39-33.39Z"/>
    </g>
    <g>
      <circle class="cls-3" cx="251.24" cy="138" r="35.44"/>
      <path class="cls-2" d="M251.24,175.48c-20.67,0-37.49-16.82-37.49-37.49s16.82-37.49,37.49-37.49,37.49,16.82,37.49,37.49-16.82,37.49-37.49,37.49ZM251.24,104.61c-18.41,0-33.39,14.98-33.39,33.39s14.98,33.39,33.39,33.39,33.39-14.98,33.39-33.39-14.98-33.39-33.39-33.39Z"/>
    </g>
    <g>
      <circle class="cls-3" cx="225.47" cy="192.12" r="35.44"/>
      <path class="cls-2" d="M225.46,229.61c-20.67,0-37.49-16.82-37.49-37.49s16.82-37.49,37.49-37.49,37.49,16.82,37.49,37.49-16.82,37.49-37.49,37.49ZM225.46,158.73c-18.41,0-33.39,14.98-33.39,33.39s14.98,33.39,33.39,33.39,33.39-14.98,33.39-33.39-14.98-33.39-33.39-33.39Z"/>
    </g>
    <g>
      <circle class="cls-3" cx="335.37" cy="37.48" r="35.44"/>
      <path class="cls-2" d="M335.37,74.97c-20.67,0-37.49-16.82-37.49-37.49S314.7,0,335.37,0s37.5,16.82,37.5,37.49-16.82,37.49-37.5,37.49ZM335.37,4.1c-18.41,0-33.39,14.98-33.39,33.39s14.98,33.39,33.39,33.39,33.4-14.98,33.4-33.39-14.98-33.39-33.4-33.39Z"/>
    </g>
    <g>
      <circle class="cls-3" cx="315.25" cy="86.02" r="35.44"/>
      <path class="cls-2" d="M315.25,123.51c-20.67,0-37.49-16.82-37.49-37.49s16.82-37.49,37.49-37.49,37.49,16.82,37.49,37.49-16.82,37.49-37.49,37.49ZM315.25,52.63c-18.41,0-33.39,14.98-33.39,33.39s14.98,33.39,33.39,33.39,33.39-14.98,33.39-33.39-14.98-33.39-33.39-33.39Z"/>
    </g>
    <g>
      <circle class="cls-3" cx="294.25" cy="138" r="35.44"/>
      <path class="cls-2" d="M294.25,175.48c-20.67,0-37.49-16.82-37.49-37.49s16.82-37.49,37.49-37.49,37.49,16.82,37.49,37.49-16.82,37.49-37.49,37.49ZM294.25,104.61c-18.41,0-33.39,14.98-33.39,33.39s14.98,33.39,33.39,33.39,33.39-14.98,33.39-33.39-14.98-33.39-33.39-33.39Z"/>
    </g>
    <g>
      <circle class="cls-3" cx="269.28" cy="192.12" r="35.44"/>
      <path class="cls-2" d="M269.28,229.61c-20.67,0-37.49-16.82-37.49-37.49s16.82-37.49,37.49-37.49,37.49,16.82,37.49,37.49-16.82,37.49-37.49,37.49ZM269.28,158.73c-18.41,0-33.39,14.98-33.39,33.39s14.98,33.39,33.39,33.39,33.39-14.98,33.39-33.39-14.98-33.39-33.39-33.39Z"/>
    </g>
    <g>
      <circle class="cls-3" cx="241.44" cy="245.81" r="35.44"/>
      <path class="cls-2" d="M241.44,283.29c-20.67,0-37.49-16.82-37.49-37.49s16.82-37.49,37.49-37.49,37.49,16.82,37.49,37.49-16.82,37.49-37.49,37.49ZM241.44,212.42c-18.41,0-33.39,14.98-33.39,33.39s14.98,33.39,33.39,33.39,33.39-14.98,33.39-33.39-14.98-33.39-33.39-33.39Z"/>
    </g>
  </g>
  <g>
    <g>
      <circle class="cls-3" cx="296.34" cy="37.48" r="35.44"/>
      <path class="cls-2" d="M296.34,74.97c-20.68,0-37.5-16.82-37.5-37.49S275.67,0,296.34,0s37.49,16.82,37.49,37.49-16.82,37.49-37.49,37.49ZM296.34,4.1c-18.42,0-33.4,14.98-33.4,33.39s14.98,33.39,33.4,33.39,33.39-14.98,33.39-33.39-14.98-33.39-33.39-33.39Z"/>
    </g>
    <g>
      <circle class="cls-3" cx="340.15" cy="37.48" r="35.44"/>
      <path class="cls-2" d="M340.15,74.97c-20.67,0-37.49-16.82-37.49-37.49S319.48,0,340.15,0s37.5,16.82,37.5,37.49-16.82,37.49-37.5,37.49ZM340.15,4.1c-18.41,0-33.39,14.98-33.39,33.39s14.98,33.39,33.39,33.39,33.4-14.98,33.4-33.39-14.98-33.39-33.4-33.39Z"/>
    </g>
    <g>
      <circle class="cls-3" cx="383.17" cy="37.48" r="35.44"/>
      <path class="cls-2" d="M383.16,74.97c-20.67,0-37.49-16.82-37.49-37.49S362.5,0,383.16,0s37.5,16.82,37.5,37.49-16.82,37.49-37.5,37.49ZM383.16,4.1c-18.41,0-33.39,14.98-33.39,33.39s14.98,33.39,33.39,33.39,33.4-14.98,33.4-33.39-14.98-33.39-33.4-33.39Z"/>
    </g>
    <g>
      <circle class="cls-3" cx="425.16" cy="37.48" r="35.44"/>
      <path class="cls-2" d="M425.16,74.97c-20.67,0-37.49-16.82-37.49-37.49S404.49,0,425.16,0s37.49,16.82,37.49,37.49-16.82,37.49-37.49,37.49ZM425.16,4.1c-18.41,0-33.39,14.98-33.39,33.39s14.98,33.39,33.39,33.39,33.39-14.98,33.39-33.39-14.98-33.39-33.39-33.39Z"/>
    </g>
    <g>
      <circle class="cls-3" cx="316.46" cy="86.02" r="35.44"/>
      <path class="cls-2" d="M316.46,123.51c-20.67,0-37.49-16.82-37.49-37.49s16.82-37.49,37.49-37.49,37.49,16.82,37.49,37.49-16.82,37.49-37.49,37.49ZM316.46,52.63c-18.41,0-33.39,14.98-33.39,33.39s14.98,33.39,33.39,33.39,33.39-14.98,33.39-33.39-14.98-33.39-33.39-33.39Z"/>
    </g>
    <g>
      <circle class="cls-3" cx="360.28" cy="86.02" r="35.44"/>
      <path class="cls-2" d="M360.28,123.51c-20.67,0-37.49-16.82-37.49-37.49s16.82-37.49,37.49-37.49,37.49,16.82,37.49,37.49-16.82,37.49-37.49,37.49ZM360.28,52.63c-18.41,0-33.39,14.98-33.39,33.39s14.98,33.39,33.39,33.39,33.39-14.98,33.39-33.39-14.98-33.39-33.39-33.39Z"/>
    </g>
    <g>
      <circle class="cls-3" cx="403.29" cy="86.02" r="35.44"/>
      <path class="cls-2" d="M403.29,123.51c-20.67,0-37.49-16.82-37.49-37.49s16.82-37.49,37.49-37.49,37.49,16.82,37.49,37.49-16.82,37.49-37.49,37.49ZM403.29,52.63c-18.41,0-33.39,14.98-33.39,33.39s14.98,33.39,33.39,33.39,33.39-14.98,33.39-33.39-14.98-33.39-33.39-33.39Z"/>
    </g>
    <g>
      <circle class="cls-3" cx="337.46" cy="138" r="35.44"/>
      <path class="cls-2" d="M337.46,175.48c-20.67,0-37.49-16.82-37.49-37.49s16.82-37.49,37.49-37.49,37.49,16.82,37.49,37.49-16.82,37.49-37.49,37.49ZM337.46,104.61c-18.41,0-33.39,14.98-33.39,33.39s14.98,33.39,33.39,33.39,33.39-14.98,33.39-33.39-14.98-33.39-33.39-33.39Z"/>
    </g>
    <g>
      <circle class="cls-3" cx="381.27" cy="138" r="35.44"/>
      <path class="cls-2" d="M381.27,175.48c-20.67,0-37.49-16.82-37.49-37.49s16.82-37.49,37.49-37.49,37.49,16.82,37.49,37.49-16.82,37.49-37.49,37.49ZM381.27,104.61c-18.41,0-33.39,14.98-33.39,33.39s14.98,33.39,33.39,33.39,33.39-14.98,33.39-33.39-14.98-33.39-33.39-33.39Z"/>
    </g>
    <g>
      <circle class="cls-3" cx="355.5" cy="192.12" r="35.44"/>
      <path class="cls-2" d="M355.5,229.61c-20.67,0-37.49-16.82-37.49-37.49s16.82-37.49,37.49-37.49,37.5,16.82,37.5,37.49-16.82,37.49-37.5,37.49ZM355.5,158.73c-18.41,0-33.39,14.98-33.39,33.39s14.98,33.39,33.39,33.39,33.4-14.98,33.4-33.39-14.98-33.39-33.4-33.39Z"/>
    </g>
    <g>
      <circle class="cls-3" cx="465.41" cy="37.48" r="35.44"/>
      <path class="cls-2" d="M465.41,74.97c-20.68,0-37.5-16.82-37.5-37.49S444.73,0,465.41,0s37.49,16.82,37.49,37.49-16.82,37.49-37.49,37.49ZM465.41,4.1c-18.42,0-33.4,14.98-33.4,33.39s14.98,33.39,33.4,33.39,33.39-14.98,33.39-33.39-14.98-33.39-33.39-33.39Z"/>
    </g>
    <g>
      <circle class="cls-3" cx="445.28" cy="86.02" r="35.44"/>
      <path class="cls-2" d="M445.28,123.51c-20.67,0-37.49-16.82-37.49-37.49s16.82-37.49,37.49-37.49,37.49,16.82,37.49,37.49-16.82,37.49-37.49,37.49ZM445.28,52.63c-18.41,0-33.39,14.98-33.39,33.39s14.98,33.39,33.39,33.39,33.39-14.98,33.39-33.39-14.98-33.39-33.39-33.39Z"/>
    </g>
    <g>
      <circle class="cls-3" cx="424.29" cy="138" r="35.44"/>
      <path class="cls-2" d="M424.29,175.48c-20.67,0-37.49-16.82-37.49-37.49s16.82-37.49,37.49-37.49,37.49,16.82,37.49,37.49-16.82,37.49-37.49,37.49ZM424.29,104.61c-18.41,0-33.39,14.98-33.39,33.39s14.98,33.39,33.39,33.39,33.39-14.98,33.39-33.39-14.98-33.39-33.39-33.39Z"/>
    </g>
    <g>
      <circle class="cls-3" cx="399.31" cy="192.12" r="35.44"/>
      <path class="cls-2" d="M399.31,229.61c-20.67,0-37.49-16.82-37.49-37.49s16.82-37.49,37.49-37.49,37.49,16.82,37.49,37.49-16.82,37.49-37.49,37.49ZM399.31,158.73c-18.41,0-33.39,14.98-33.39,33.39s14.98,33.39,33.39,33.39,33.39-14.98,33.39-33.39-14.98-33.39-33.39-33.39Z"/>
    </g>
    <g>
      <circle class="cls-3" cx="371.48" cy="245.81" r="35.44"/>
      <path class="cls-2" d="M371.47,283.29c-20.67,0-37.49-16.82-37.49-37.49s16.82-37.49,37.49-37.49,37.49,16.82,37.49,37.49-16.82,37.49-37.49,37.49ZM371.47,212.42c-18.41,0-33.39,14.98-33.39,33.39s14.98,33.39,33.39,33.39,33.39-14.98,33.39-33.39-14.98-33.39-33.39-33.39Z"/>
    </g>
  </g>
  <path class="cls-1" d="M481.41,250.91v-5.83h36.92v5.83h-36.92ZM496.77,266.49v-36.96h6.21v36.96h-6.21Z"/>
  <path class="cls-1" d="M499.87,281.25c-18.33,0-33.24-14.91-33.24-33.24s14.91-33.23,33.24-33.23,33.23,14.91,33.23,33.23-14.91,33.24-33.23,33.24ZM499.87,220.62c-15.11,0-27.4,12.29-27.4,27.39s12.29,27.4,27.4,27.4,27.39-12.29,27.39-27.4-12.29-27.39-27.39-27.39Z"/>
</svg>